<svg viewBox="199.88479999999998 351.4368 1650.688 1400.832" version="1.1" xmlns="http://www.w3.org/2000/svg" id="Layer_1" style="max-height: 500px" width="1650.688" height="1400.832">
  
  <defs>
    <style>
      .st0 {
        fill: #070217;
      }

      .st1 {
        fill: #070217;
      }

      .st2 {
        fill: #070217;
      }

      .st3 {
        fill: #070217;
      }

      .st4 {
        fill: #070217;
      }

      .st5 {
        fill: #070217;
      }
    </style>
  </defs>
  <path d="M517,387.7c.9,0,1.7,0,2.6,0,.9,0,1.9,0,2.8,0q1.5,0,3,0t3,0c2.5,0,5,0,7.5,0h21v3h2c.3-1,.7-2,1-3,3,0,5.9,0,8.9,0,.8,0,1.7,0,2.6,0,.8,0,1.6,0,2.4,0q1.1,0,2.3,0,1.9.1,3.9,1.1v2h-5c2,.3,4,.7,6,1v-3c4.5-.9,8.3-1,12.9-.6,5.1.4,10,.7,15.1.6v2c1.2-.2,2.3-.3,3.5-.5,4.6-.5,9.1-.6,13.8-.6.7,0,1.4,0,2.1,0,2.7,0,5.3,0,8,.6,3.1.6,5.9.6,9.1.6q1.8,0,3.7,0c2.6,0,5.1,0,7.7,0,1.2,0,2.4,0,3.7,0,1.1,0,2.2,0,3.4,0q3.2,0,6,.6c4.1.7,8.2.7,12.4.8q1.3,0,2.7,0c1.9,0,3.8,0,5.6.1,2.8,0,5.6.1,8.5.2,10.3.2,20.6.4,31,.3q3,0,6,1c1.4.1,2.8.2,4.2.3q1.3,0,2.6.1,1.4,0,2.8.1c.9,0,1.9,0,2.9.1,2,0,4,.2,6,.3,3.1.1,6.1.3,9.2.4,2,0,3.9.2,5.9.3q1.4,0,2.7.1c5.2.2,10.3.3,15.5.3,3.7,0,7.3.3,11,.5,6.8.4,13.5.6,20.2.5,9.3,0,18.7.1,28,.4,1.6,0,3.1,0,4.7.1,2.2,0,4.4.1,6.6.2,1.3,0,2.6,0,3.9.1,4,.2,7.8.7,11.8,1.2,1.6,0,3.2,0,4.8,0,2.3,0,4.1,0,6.3.6q2.1.7,4.9-.6c2.1,0,4.1.2,6.2.4,1.1,0,2.2.2,3.3.3,2.4.2,4.9.5,7.3.9,5.8.7,11.6.5,17.4.4,4,0,8,0,12,.5,6.5.8,13,.8,19.4,1,3.9,0,7.9.2,11.8.3q1.1,0,2.3,0c5.6.2,11.2.4,16.8.8,9.2.6,18.3.5,27.5.4v2c1,0,2.1-.2,3.1-.3,7-.5,13.6-.9,20.5,0,3.3.4,6.6.3,9.9.2q2.4,0,5.2.6c4,.6,7.8.6,11.8.5,10,0,20,.3,30,.6,7.9.3,15.9.4,23.8.3q2.7,0,4.7,1.1c1.5,0,2.9,0,4.4,0,.8,0,1.5,0,2.3,0,.8,0,1.5,0,2.3,0h11v2c.7-.3,1.3-.7,2-1,1.8,0,3.6-.1,5.4-.1,1,0,1.9,0,2.9,0,2.4.1,4.4.5,6.7,1.1,3.3,0,6.6,0,9.9,0,2.3,0,4.7,0,7,0,1.2,0,2.4,0,3.6,0q1.7,0,3.5,0c1,0,2.1,0,3.1,0q2.9.1,5.3.6c2.5.5,4.8.6,7.3.7.9,0,1.8,0,2.7,0,1,0,1.9,0,2.9,0,2.1,0,4.2,0,6.2,0,3.3,0,6.5,0,9.8.1,3.2,0,6.3,0,9.5.1q1.4,0,2.9,0c6.6.1,12.8,1,19.3,2.4.1.8.2,1.6.3,2.4q.4,2.9,3.2,4.4c.8.4,1.6.8,2.4,1.2-.3.7-.7,1.3-1,2q-2.1.6-4,1c0,.7.1,1.3.2,2,.3,3,.5,6,.8,9.1,0,1,.2,2.1.3,3.1.5,5.3.7,10.5.7,15.8.4,3,.9,6,1.5,9,1.7,10.9,1.8,22.2,2.2,33.2q0,2,.2,3.9c0,1.2,0,2.5.1,3.8,0,1.1,0,2.2.1,3.4q0,2.7-1,4.7h2c.3,3.2.6,6.5.9,9.8,0,.9.2,1.8.3,2.7,1.1,11.4,2,22.7,2.6,34.1.7,12.1,1.5,24.1,2.6,36.1.5,5.9.7,11.7.5,17.6,0,2.4.4,4.3,1.1,6.6.2,2.1.3,4.1.4,6.2.3,4.9.6,9.9,1.1,14.8.9,10.8,1.7,21.5,1.5,32.3q-.3,2.6,1,3.7c0,2.3,0,4.5-.2,6.8q0,2.5,2.2,5.2c.3,2.7,0,5.3,0,8h8v3h2v-3c1.6,0,3.2,0,4.8,0,.9,0,1.8,0,2.7,0q2.5,0,5.5,1.1c.3.7.7,1.3,1,2q1.4,0,2.9,0,3.1,0,5.1,1.1c2.5,6.8,3.3,13.8,3.7,21,.5,6.3,1.4,12.6,2.3,18.9.6,4.7,1.1,9.3,1,14,.3,2.3.7,4.7,1,7,.1,2.5.3,5,.4,7.4.4,7.2,1.5,13.9,3.1,20.9.6,3.8.3,6.9-.5,10.6h2c0,.8,0,1.6.1,2.4.6,8.1,1.6,16.1,2.9,24.2,1.4,9.2,2.5,18.3,2.7,27.7.1,5.3.9,10.4,1.8,15.6.9,5.1,1.5,10.1,2.1,15.2.1,1.1.3,2.2.4,3.3.8,7.3,1.5,14.5,1.8,21.9.1,3.1.4,6.1.8,9.2.5,3.9.6,7.6.5,11.4,0,.7,0,1.4,0,2.1,0,1.7,0,3.3,0,5h2c0,1,0,2,.1,3.1.6,11,1.6,22,2.9,32.9h-2v2h2c1.2,7,2.3,13.9,3,21,1.7.7,3.3,1.3,5,2v2c.6.1,1.3.2,1.9.3.7.2,1.4.5,2.1.7.3,1,.7,2,1,3,.7.3,1.4.5,2.1.8,3.9,1.6,7.1,4,9.9,7.2q.7,2.2,1,4h2v5c.9-.2,1.9-.4,2.9-.6q3.1-.4,5.1.6v2h2v2c.8.2,1.6.5,2.4.8q2.6,1.2,3.4,3.4c0,.6.1,1.2.2,1.9h4c2.1,2.8,3.4,5.5,4,9,.3-.7.7-1.3,1-2,3.7,1.6,6.5,3.9,9.6,6.5,2.8,2.3,5.4,4.5,8.4,6.5v2c1,.3,2,.7,3,1v2c1.7.7,3.3,1.3,5,2v3c1.7.3,3.3.7,5,1,.3,1.3.7,2.6,1,4,.6.1,1.2.2,1.9.3q2.1.7,4.1,3.7c.4,1.7.7,3.3,1,5v-3c3.8,1.6,6.1,4.1,9,7,1,.7,2,1.3,3,2v2c.6.1,1.2.2,1.8.3,2.6.8,4,1.9,6,3.6.6.5,1.2,1,1.9,1.6q1.4,1.5,1.4,3.5c.8.2,1.6.5,2.4.7.8.4,1.7.9,2.6,1.3q.8,2.6,1,5c1.3.3,2.6.7,4,1v2c1.7.3,3.3.7,5,1v2h2v7c6.2-3.5,11.7-7.2,17-12,.9-.8,1.8-1.6,2.7-2.4q6-5.3,11.4-11.2c.6-.8,1.3-1.6,1.9-2.4h2c.1-.8.2-1.5.3-2.3.8-3,1.5-3.6,3.7-5.7,2.5-4.3,3.9-8.7,5.2-13.5,1.3-4.3,2.7-8.6,4.9-12.6q1-2.1,1.3-5.1c.7-4.5,2-8.5,3.6-12.8.8-2.5,1.4-4.8,2-7.4q.3-1.2.5-2.4c.4-1.7.7-3.5,1-5.2l.5-2c.7-.3,1.3-.7,2-1,0-1,0-1.9,0-2.9,0-5.1.5-10.3,1.6-15.3.6-3.5.8-7.1,1-10.7.2-3.7.4-7.4,1-11,.6-4,.6-7.9.6-12q0-1.2,0-2.3c0-4.7-.5-9.1-1.1-13.7.4-4.3,1-8.1,3-12h-2q0-1.1-.2-2.2c-.3-3.4-.5-6.8-.8-10.2,0-1.2-.2-2.3-.3-3.5-.4-5.1-.8-10.1-1.4-15.2q-.4-3.8.6-6.8c-.1-1.4-.3-2.8-.5-4.2-1-8.5-.3-17.4,1.5-25.8.1-1.2.3-2.4.4-3.7q.6-3.3,2.6-5.3c.1-2.1,0-4.2-.2-6.3.3-3.8,1.8-7.1,3.2-10.7,1-2.8,2.1-5.7,3.1-8.6q.4-1.1.8-2.2c1.6-4.4,2.9-8.8,4.2-13.3h2c.7-3.3,1.3-6.6,2-10h2c.1-1.1.2-2.2.3-3.3.7-4,1.1-4.1,3.7-6.7q1.2-2.5,2.2-5.2c.3-.9.7-1.8,1-2.7q.4-1,.8-2.1h2c.2-.8.4-1.6.6-2.4,4.8-12.2,15.1-22.6,24.7-31.2,5.3-4.9,10.3-10.1,15.4-15.3q11.9-12.1,18.3-14.2c.4-.5.8-1,1.2-1.5,2.6-2.3,5.4-2.2,8.8-2.5.3-1,.7-2,1-3h4v-2h4c1.7-.6,3.4-1.3,5-2v-2h5v-2h5v-2l4,1v-2c2.3-.4,4.7-.7,7-1,.3.3.7.7,1,1,2.9-.5,3.9-.9,6-3,1.9,0,3.8,0,5.7,0,2.5,0,4.7-.5,7.1-1.1,11.5-2.5,29.7-2.8,40.2,3-.3-1-.7-2-1-3,1-.3,2-.7,3-1,.7.7,1.3,1.3,2,2q1.5,0,3,0c1,0,2,0,3,0,.7,1,1.3,2,2,3,1-.3,2-.7,3-1,10.5,3.4,20.7,14,28,22v2c.6.3,1.2.6,1.9.9q2.1,1.1,4.1,3.1c.8.3,1.6.6,2.4.9,2.9,1.3,3.9,2.4,5.6,5.1.3,1,.7,2,1,3h2v2h2c1.4,2,2.6,3.9,3.9,6,.4.6.7,1.2,1.1,1.8,3.9,6.5,7.1,13.2,10,20.2.3.7.6,1.4.9,2.1,4.5,10.7,8.8,22.2,9.1,33.9,0,.8,0,1.7.1,2.5.3,9.9-.7,20.2-4.1,29.5h-3c0,.7,0,1.4,0,2q0,1.3,0,2.7c0,.9,0,1.8,0,2.7-.2,2.7-.8,4.3-2.2,6.6-.3-.7-.7-1.3-1-2q-1.5,3.5-3,7h2c-.7,1.3-1.3,2.6-2,4-1-.3-2-.7-3-1,0,1.1,0,2.1,0,3.2,0,3.2-.2,5.8-1.1,8.8-.7.3-1.3.7-2,1v3h-2c-.3,1-.7,2-1,3q-1,.9-1.9,1.8c-2.4,2.6-3.1,4.8-4.1,8.2-.8,0-1.6.2-2.4.2q-1.3.4-2.6.8c-.7,1.3-1.3,2.7-2,4-6.2,7.7-13.2,13.9-21,20-1.2,1-2.4,2-3.6,3.1q-2.4,1.9-4.4,1.9v2l-11.9,6c-.7.3-1.4.7-2.1,1.1-1.8.9-3.5,1.8-5.3,2.6-2.2,1.1-4.2,2.2-6.3,3.4-2.4,1.4-4.8,2.7-7.4,3.9v1c-6.5-.3-12.7-.9-18-5-2.9-3.8-3.4-6.7-3.4-11.5,0-1.1,0-2.2,0-3.3.4-3.5,1.3-5.4,3.4-8.2h2c.3-.8.5-1.5.8-2.3,1.1-2.6,2-4,4.2-5.7h3q.3-1.1.6-2.2c1.9-3.8,4-5.3,7.4-7.8h2v-2c.8-.6,1.5-1.2,2.3-1.8,3-2.5,4.2-4.7,5.7-8.2h2c-.2-.6-.3-1.1-.5-1.7-2-8.4-3.4-19.2.7-27,1.2-1.8,2.4-3.5,3.8-5.2,1.4-1.9,2.8-3.8,4.2-5.7,1-1.3,1.9-2.6,2.9-3.8,5.1-6.7,7.3-12.5,7.1-21q0-1.8,0-3.7c0-.9,0-1.8-.1-2.8,1,.3,2,.7,3,1v-5h-2c-.3,1-.7,2-1,3-.7-1.6-1.3-3.3-2-5h2c-.3-.7-.7-1.3-1-2-.7.3-1.3.7-2,1-.3-1.1-.6-2.1-.9-3.2-.9-3-1.9-5.9-3.1-8.8h-2q-3-4.4-3-7c-4-2.6-8.1-4.6-12.5-6.5q-3.5-1.5-5.4-2.6c-4.3-1.9-9.2-1.3-13.9-1.2-1.1,0-2.1,0-3.2,0-8.3,0-14.5,1.3-21.4,6q-3.4,2.3-5.6,2.3v2q-2.1,1.9-4.9,4.1c-.9.7-1.8,1.4-2.7,2.2q-2.4,1.7-4.4,1.7c-.3.6-.5,1.2-.8,1.8-1.2,2.2-2.3,3.6-4.2,5.2h-2c-.2.8-.5,1.6-.8,2.4-1,2.8-2,5.1-3.3,7.7-2.2,4.7-2.5,9.1-2.8,14.3q-.2,2.6-1.2,5.6c.7.3,1.3.7,2,1-.3,1.6-.7,3.3-1,5h-2c.2.7.4,1.5.7,2.2.4,3.4-.2,4.4-2.2,7.1-.6.8-1.1,1.5-1.7,2.3-2.1,2.7-4.3,5.3-6.6,7.9q-1.3,1.4-2.2,3.4h-2c-.2.6-.4,1.2-.6,1.9-1.5,5-3,9.9-4.8,14.7-4.6,16.9-2.8,36.9,2.4,53.4.3,1,.6,2,.9,3,.5,1.6,1,3.2,1.5,4.7,1.6,6,1.7,12,1.7,18.1,0,.8,0,1.5,0,2.3,0,1.9,0,3.9,0,5.8,0,2.8.5,5.6.8,8.4q.2,2.6.2,5.4-.2,2.2,1,3.2c0,1.6.1,3.3,0,4.9q0,1.5,0,3c0,1,0,2.1,0,3.2,0,1,0,2.1,0,3.2,0,2.6,0,5.2,0,7.8-.3-.7-.7-1.3-1-2-.7,1.7-1.3,3.3-2,5h3q-.9,12.6-1.5,17.1c-.4,3.3-.8,6.5-1.1,9.8,0,.9-.2,1.9-.3,2.8,0,.7,0,1.5,0,2.2.3.3.7.7,1,1,0,2.3,0,4.7,0,7h-2c.2.5.3,1.1.5,1.6,1.5,5.9,1.5,10.7.6,16.7-.9,7.1-1.2,14-.8,21.2q0,1.2.1,2.4c.2,3.2.5,6,1.5,9,.4,2,.7,4,1,6h-2v2l2,1c-1,.3-2,.7-3,1,.2,1.2.4,2.4.6,3.7.4,3.4.3,6-.6,9.3-.1.9-.3,1.8-.4,2.8-.2.7-.4,1.5-.6,2.2l-2,1v3c-.3,1.7-.6,3.5-1,5.2-.2.9-.4,1.8-.6,2.7-.1.7-.3,1.4-.4,2.1-.3-1-.7-2-1-3-.7,2.5-1.1,4.7-1.2,7.4-1,8.7-5,17.2-8.7,25.1-1.5,3.4-2.7,7-4,10.5-2,5.4-4.2,10.6-6.9,15.7-2,4-3.6,8.2-5.2,12.3h-2c0,1.1-.2,2.2-.2,3.4q-.8,3.6-2.8,5.1c-.6.2-1.3.4-1.9.6.2.8.4,1.6.6,2.4.1.9.2,1.7.4,2.6-.7.7-1.3,1.3-2,2h-1c-.7,2.3-1.3,4.6-2,7h-2c-.3,1.7-.7,3.3-1,5h-3c0,.5-.2,1-.2,1.6-2.3,7.3-6.8,12.1-12.7,16.8-2.4,1.9-4,3.9-5.8,6.4-6.9,9.6-16.8,17.1-27.3,22.3q-1.3.8-2.6,1.6-2.4,1.4-4.4,1.4v2q-3.5,3-6,3c-.7,1-1.3,2-2,3q-.9.2-1.8.4-2.5.5-4.7,3.2-2.5,2.4-6.5,2.4c-.3,1-.7,2-1,3q-3,2-6.3,2.9c-3.5,1-6.4,2.4-9.7,4.1h-2v2c-1,.4-2,.8-3,1.2-2.8,1.2-5.4,2.5-8.1,3.9-3.3,1.7-6.2,2.5-9.9,2.9v2c-2.1.7-4.2,1.3-6.2,2-1.2.4-2.3.7-3.5,1.1q-3.2.9-7.2.9v2c-2,.3-4,.7-6,1,.4,2.5.6,3.7,2.6,5.4.6.4,1.3.8,1.9,1.2q1.9,1.2,3.4,2.4v3c1.3.7,2.6,1.3,4,2-.3.7-.7,1.3-1,2,.7.1,1.4.2,2.2.3,3.1.8,5.1,2.1,7.8,3.7.9.2,1.7.3,2.6.5,2.8.6,3.4,1.5,5.4,3.5,2,.7,4,1.4,6,2,1.3.7,2.7,1.3,4,2,1.7.7,3.3,1.3,5,2,.3-.7.7-1.3,1-2,1,.3,1.9.7,2.9,1,3.8,1.1,7.3,1.1,11.2,1q1.8,0,2.8,1c2.2,0,4.4,0,6.6,0q1.8,0,3.6,0c.9,0,1.9,0,2.8,0v-1c1,0,2.1,0,3.1,0,1.4,0,2.7,0,4.1,0,.7,0,1.4,0,2.1,0,3.9,0,6.3-.4,9.7-2.2,2.3-.3,4.7-.4,7.1-.6q5.1-.2,9.9-1.4c1,0,2.1,0,3.1,0,5.6,0,10.7-1.4,16-3.1,4.7-1.2,9.2-1.5,14-1.7.9,0,1.8,0,2.8-.1q18.1-.7,23.1,1.8c1.7,0,3.3,0,5,0v2c1-.3,2-.7,3-1q2.1.6,4.4,1.7c5.8,2.4,11.6,4.4,17.6,6.3v2c1,.3,2,.7,3,1v1c.6.1,1.3.2,1.9.3.7.2,1.4.5,2.1.7.3,1,.7,2,1,3q3,1.2,6,2v2c.6.1,1.2.3,1.9.4q2.1.6,4.1,1.6c.4,1.7.7,3.3,1,5,.3,1,.7,2,1,3,1,.3,2,.7,3,1q1.3,2,2.6,4.4c1.4,2.6,2.3,4.5,4.4,6.6q-.4,3.6-1,7l2,1v7h2c.3,2,.7,4,1,6,.2.9.3,1.8.5,2.8,1.5,10.4.6,20.2-2.5,30.2h-2c-.1.9-.2,1.7-.3,2.6-1.7,8.2-7.4,16-13.7,21.4h-2c-.2.6-.3,1.2-.5,1.9-2.1,2.9-4,3.1-7.4,3.8q-2.1.3-6.1.3-1.9.9-3.9,2c-8.3,3.8-17.5,2.5-26.1.2-.6,0-1.3-.2-1.9-.2l-2,2v-4c-1,.3-2,.7-3,1v2c-3-.6-4.4-1.3-7-3v-3c-1,.3-2,.7-3,1-1.7-1.3-3.3-2.7-5-4-2.9-1.6-5.8-3.1-8.7-4.6q-2.3-1.4-3.3-3.4c-1,.3-2,.7-3,1-.4-.7-.8-1.5-1.2-2.2q-1.6-2.7-3.6-4.6c-3.4-3.5-7.1-7.6-7.1-12.7.3-.8.7-1.7,1-2.5.2-.7.4-1.4.6-2q1.4-4.2,2.4-6c4.1-1.4,6.7-.8,11,0,.3.7.7,1.3,1,2,1,.3,2,.7,3,1,.3.7.7,1.3,1,2,1,.3,2,.7,3,1v3c2,.7,4,1.3,6,2v2c1.6-.1,3.3-.3,4.9-.4,1,0,2-.2,3-.3,2.6-.3,5.3-.6,7.9-.9,3.3-.4,6-.6,9.1.6q1.1,2,2,4c1,.3,2,.7,3,1v2c2-.3,4-.7,6-1v-2c1.4-1.6,3-3,4.6-4.3,1.9-2.4,2-4.7,2.4-7.7h2v-3h-2v-3c-.7-.3-1.3-.7-2-1q1-.4,2-.7,2.3-1.1,2.7-3.5,0-1.2.1-2.5c0-.8.1-1.6.2-2.5,0-.6,0-1.3,0-1.9-.7.3-1.3.7-2,1v-6c-.6-.2-1.3-.5-1.9-.8q-2.1-1.2-2.8-3.4c0-.6-.2-1.2-.2-1.9h-2v-2h-3c-.3-1-.7-2-1-3-2.3-.3-4.6-.7-7-1l2-1c-.3-.3-.7-.7-1-1-.8.2-1.7.4-2.5.6-3.3.4-4.7.2-7.8-.6-4.5-1.1-7.8-.6-12.2.5-6.1,1.4-12.3,1.7-18.6,1.6v-4h-3c-.3.7-.7,1.3-1,2-2.2-.5-4-1-6-2-.3-1-.7-2-1-3q-3.5-1.7-7-3c-.3,1-.7,2-1,3v-3q-2.2.9-4,3c-.3-.3-.7-.7-1-1v2c-1,.3-2,.7-3,1v-3q-3.1.6-4,3c1,.3,2,.7,3,1-.8.4-1.5.9-2.3,1.3-4.9,2.8-9.6,5.5-14,9-3.1,2.4-5.8,3.7-9.6,4.7-.9.9-1.8,1.9-2.6,2.8-9.6,8.8-21,8.5-33.4,8.4-1.3,0-2.7,0-4,0q-9.8,0-11-1.2c-.3.3-.7.7-1,1q-7.3.2-11-1v-2c-.6.2-1.3.5-1.9.7-5.5.6-10.3-2-15.3-4-7.1-2.7-13.2-4.3-20.8-4.5-14.5-1.2-29.2-12.3-38.5-22.8-1.5-1.8-3-3.6-4.5-5.4-.7-.9-1.4-1.7-2.1-2.6-1.1-1.4-2.2-2.9-3.3-4.3-6.8-8.9-14.3-16.4-25.6-19.1h-4c-1-1.7-2-3.3-3-5-2-1.4-4-2.7-6-4-1.7-1.6-3.4-3.3-5-5-.9-.8-1.8-1.7-2.7-2.6-2-2.1-3.2-3.7-4.3-6.4-4.3.5-8.6,1.1-13,1.7-8.6,1.2-17.1,2.4-25.7,2.7-8.9.3-17.6,1.7-26.3,3.1-7.4,1.1-14.6,1.9-22.1,2.2-5,.2-9.8.8-14.8,1.8-12.3,2.2-24.5,2.8-37,3.2-1,0-2.1,0-3.1,0-.9,0-1.9,0-2.8,0q-2.1,0-3.1,1.2c-2.4.4-4.7.8-7.1,1.1-1.3.2-2.6.4-3.9.5q-3.9.4-7.9.4-2.9-.4-4.1,1c-1.5,0-2.9,0-4.4,0-6.5,0-12.9.6-19.3,1.3q-17.3,1.7-21.3-.3v2h-5c.3,1,.7,2,1,3q-.8,2.6-2,5c-.7.3-1.3.7-2,1q-.9,2.3-1.6,4.9-1.4,4.9-2.4,7.1c-1.2,8.2-1.8,15.3,2,22.9,1.1,2.4,1.6,4.6,2,7.1h2v2h2v2c3.1,1.7,5.8,2.4,9.3,3,4.4.7,8.5,1.7,12.7,3,4.4,1.2,7.6.8,12.1,0,1.1-.2,2.2-.4,3.3-.6.8-.1,1.7-.3,2.6-.4l1,2c3.5-.5,6.7-.9,10-2,.7.3,1.3.7,2,1l1-2q1.7-.3,4-.4c11.9-1,23.5-3.5,35-6.8q3-.8,6-.8c.3-1,.7-2,1-3,1.7.3,3.3.7,5,1,.3-.7.7-1.3,1-2,1.1-.3,2.2-.6,3.4-.9q3.6-.7,5.1-2.7,1.5-1.4,5.2-1.6c1.1,0,2.2.1,3.3.2.3-1,.7-2,1-3h3l2-2h3q3.1-.8,6-2c.3-.7.7-1.3,1-2,2.2-.6,4.5-1,6.8-1.3q2.3-.5,3.8-2.2l1.4-1.4h7c.7-1,1.3-2,2-3,1,.3,2,.7,3,1,.3-.7.7-1.3,1-2q2.1-.6,4-1c.3.7.7,1.3,1,2,.5-.6,1.1-1.3,1.6-1.9,2.9-2.5,4.8-2.9,8.6-3.4,1.1-.2,2.1-.3,3.2-.5.9,0,1.7-.1,2.6-.2l1,1c.3-.7.7-1.3,1-2,3.3-1.1,5.7-1.1,9.1-1.1,1.1,0,2.2,0,3.3,0q1.3,0,2.6,0c1.6,0,3.1,0,4.7,0,1.6,0,3.1,0,4.7,0,.8,0,1.6,0,2.4,0,3.3,0,6.1,0,9.3,1.1,1.2.1,2.4.3,3.6.4,1.1.2,2.2.4,3.4.6.3.7.7,1.3,1,2q3,.7,6,1v2c1.1,0,2.2.1,3.4.2,5.4.6,9.9,3.2,14.6,5.8v2c1.7.3,3.3.7,5,1v2c.7,0,1.5.2,2.2.3,3.2.8,4.6,1.9,7,4.1q1,.9,2.1,1.8,1.7,1.8,2.7,4.8c1.9,2.1,3.5,3.7,6,5q1.1,2.1,2,4h3v5c.6,0,1.2.2,1.9.2q2.1.8,3.1,2.5c.3.7.7,1.5,1,2.2.3.7.7,1.4,1,2.2.3.7.7,1.5,1,2.3.3.7.7,1.5,1,2.2,1,2.4,1.4,4.7,1.9,7.3.6,2.5,1.3,4.9,1.9,7.4.3,1.3.7,2.5,1,3.8.7,2.5,1.4,5,2.1,7.5.7,2.5,1.4,5,2,7.5.5,1.9,1,3.9,1.5,5.8q.4,2,.4,6c.3,2.1.6,4.3.9,6.4q.3,1.7.5,3.3c.4,2.2.8,4.4,1.2,6.5.4,3.5-.6,5-2.7,7.8h2v2h-3c0,.8,0,1.6,0,2.5.1,6.5-.2,12.3-1.7,18.6q-.6,2,.7,3.9c-.3.6-.6,1.1-.9,1.7-1.5,3.2-1.5,6.1-1.7,9.6q-.1,1.9-.2,3.8c0,1,0,1.9-.1,2.9h-2q0,1-.2,2.1c0,.9-.2,1.8-.3,2.7,0,.9-.2,1.8-.2,2.7q-.3,2.5-1.3,5.5c.3,1,.7,2,1,3-.7.7-1.3,1.3-2,2-.7,1-1.3,2-2,3h-2c0,1.2-.2,2.5-.2,3.8-.5,4.1-1.6,5.5-4.8,8.2-1.6,2.3-3.1,4.6-4.5,6.9-1.4,2-2.6,3.6-4.5,5.1h-2l-1,2c-2.6,1.1-4.3,1.2-7,.3-4.1-1.9-6.2-3.1-8-7.3-.7.3-1.3.7-2,1-.7-.7-1.3-1.3-2-2h2q-1.6-3.1-4.1-3.7c-.6-.1-1.2-.2-1.9-.3v-2c-.6-.2-1.2-.5-1.9-.7-2.7-1.7-3.1-3.3-4.1-6.3q-1.1-1.2-3-2c-2.8-7.1-3.2-15.7-1-23h-1q0-.9,0-1.7c0-10.1.1-20.1-.3-30.2,0-.7,0-1.4,0-2.2-.3-5.4-1.9-8.4-4.7-12.9v-2q-.9-.4-1.8-.8c-3.7-1.9-5.9-3.7-8.2-7.2q-2-.6-4.4-.7c-.9,0-1.8-.1-2.7-.2q-2.9-.1-5.6,0c-10.1.6-20.3-2.6-29.3-7.2v-2c-1.7-.3-3.3-.7-5-1-.3-1-.7-2-1-3-1.6-.7-3.3-1.4-5-2-.6-.5-1.2-1.1-1.9-1.6-3.1-2-5.5-1.6-9.1-1.4h-4c-.7.7-1.3,1.3-2,2v3c-.9,1.4-1.9,2.8-2.9,4.1-1.3,2.1-2.1,4.2-3,6.5q-5.7,14.9-10.3,17.6c-.6.2-1.2.5-1.8.7.7.3,1.3.7,2,1l-6,7-1-2,1-2q-3.1.7-4.2,3.1c-.3.6-.5,1.3-.8,1.9h-3v2c0,1.9-1.1,3.4-2,5q-1.6,1.5-3.4,2.8c-.7.5-1.3,1-2,1.5-.7.5-1.4,1-2.1,1.5-.7.5-1.4,1-2.1,1.5q-5.1,3.7-7.4,3.7v-2q-1.6,1-3.3,1.9c-2.3,1.3-4.2,2.2-6.7,3.1-.7.7-1.3,1.3-2,2q-10.6,6-15,6c-3.2,1.2-6.4,2.5-9.6,3.8-3.1,1.1-6.1,1.7-9.4,2.2q-1.6,1.5-3,3c-.6.1-1.2.3-1.9.4-3.1.8-4.8,2.4-7.1,4.6q-1,2-1,4l1,2q-2,2-5.1,3.1c-3.2,1.3-5,3-7.4,5.6-4.8,5-10.3,8-16.4,11.3q-1.6.9-3.2,1.8-7.6,4.2-10,4.2v2h-4c-.3,1-.7,2-1,3h-5l-1,2c-2.4.6-4.5,1-7,1v2c-1,.3-2,.7-3,1-.7,1-1.3,2-2,3l-1-2h-3l1,2h-4l-1-2c-1.1.4-2.2.7-3.3,1.1q-3.7.9-6.7,0v2q-6.9,2.2-11,1c-1.7.3-3.3.7-5,1-1-.3-2-.7-3-1l-1,2c-.7-.3-1.3-.7-2-1-2.3.4-4.5,1-6.8,1.6q-2.2.4-5.2-.6v-2c-1.2.4-2.5.7-3.8,1.1-6,1.4-11.3.1-17.2-1.1-1.3-.2-2.6-.4-3.9-.6-2.7-.4-5.4-.9-8.1-1.4-.8-.2-1.7-.3-2.6-.5-3-.6-5.8-1.2-8.6-2.4-2.4-.9-4.4-1.4-6.9-1.9-5-1.1-9.4-3-14-5.2-5.2-2.5-10.3-4.5-15.9-6-7.9-3-16-7-22-13-1.7-1-3.5-2-5.2-2.9-2.5-1.4-4.6-3.2-6.8-5.1l1-4c-1.3.3-2.6.7-4,1-1.5-2.6-2-3.9-2-7h-2c-.3.7-.7,1.3-1,2q-2-1.4-4-3v-2c-1.3-.7-2.6-1.3-4-2v-2c-.6-.3-1.2-.5-1.8-.8-6-3.3-10.7-9.4-14.2-15.2q-.3-2.9,0-5c-1-.3-2-.7-3-1q-1.2-2.3-2.2-5.1c-.3-.9-.7-1.8-1-2.8-.3-.7-.5-1.4-.8-2.2.7-.3,1.3-.7,2-1-.3-.7-.7-1.3-1-2h-2c-.1-.6-.3-1.3-.4-1.9q-.4-2-1.6-3.1c-2.7-6.2-4.9-12.6-7-19-.3-1-.7-2-1-3q.4-2.2,1-4h-2c-3.4-9.7-5.8-18.6-5-29,.3-.7.7-1.3,1-2-.7-.3-1.3-.7-2-1-2.3-6.1-2.2-12.6-2-19q0-2.1-.5-4.6c-.6-3.9-.6-7.5-.5-11.4h2c-.2-.9-.4-1.9-.6-2.8q-.4-3.2,1.6-6.2v-3c-.7.7-1.3,1.3-2,2-.3-1.3-.7-2.6-1-4h4c-.7-.7-1.3-1.3-2-2-.7-.7-1.3-1.3-2-2,.3-3.3.6-4.6,3-7-.7-.3-1.3-.7-2-1,.7-2.3,1.3-4.6,2-7-.7-.3-1.3-.7-2-1v3c-2.7,1.3-5.3,2.7-8,4q-.1,1.1-.2,2.2c-.9,3.3-2.4,4.3-5.1,6.3-2.6,2.2-4.4,5-6.3,7.8q-1.4,1.7-4.4,2.7c-1.6,2.7-2.8,5.2-3.6,8.2s-.4,1.8-2.4,3.8q-.2,3.7.6,6c.5,2.6,0,4.2-.9,6.7-1.3,4.1-2.4,8.2-3.3,12.5q-.4,1.8-1.4,3.8c0,1.6.1,3.3.2,4.9,0,6-.9,11.7-2.1,17.6q-.3,1.3-.5,2.6c-.9,4.2-1.8,8.1-3.6,11.9h-3v3h-2c-.2.8-.5,1.7-.8,2.5-2.3,6.4-5.5,12.1-9.3,17.7q-1.2,1.9-1,4.8c-1,3.8-1.9,6.5-5,9-.3-1-.7-2-1-3-.3.3-.7.7-1,1,.3,2,.6,4,1,6-2.6,1.5-3.9,2-7,2-.7,2-1.3,4-2,6-1.6.3-3.3.7-5,1v2q-1.4,1.3-3.2,2.8c-3.1,2.6-6,5.3-8.8,8.2-2.3,2.3-4,2.9-7,4-.6.3-1.2.7-1.9,1-2.9,1.4-6,2.2-9.1,3v2c-6,2.4-11.5,4.3-18,4.8q-2.2.2-5,1.3c-3.1,1-5.5.9-8.7.8-4.6.2-8.9,1.8-13.3,3.1-1.2.3-2.4.7-3.6,1-.8.3-1.6.7-2.4,1-.3,1-.7,2-1,3-1.3.3-2.7.7-4,1-.3,1-.7,2-1,3q-1.5,1.1-3.4,2.2c-.7.4-1.4.8-2.1,1.2-.7.4-1.5.8-2.2,1.2q-1.1.6-2.1,1.2c-4,2.2-7.8,4-12.2,5.2v2c-.9,0-1.9-.2-2.8-.2q-1.6.1-3.2.2-.7,1-1.4,1.9-1.6,2.1-3.5,2.5-1.1.1-2.2.2-3.9,0-5.9,2.4c-2,.4-4,.7-6,1-.7.2-1.5.4-2.2.6q-1.8.4-3.8.4c-3.6.5-7.2,1-10.8,1.6-4.8.6-9.4,0-14.2-.6-.7,0-1.4-.2-2.1-.3-2.5-.3-4.6-.6-6.9-1.7-1.4-.2-2.7-.3-4.1-.4-5.4-.5-10-2.2-14.9-4.6-1.1-.1-2.1-.2-3.2-.4-3.8-.6-6.4-1.8-9.8-3.6-1.3-.4-2.7-.7-4-1-.7-.2-1.4-.3-2.1-.5-4.7-1-9.1-1.6-13.9-1.7-7.5-.4-14.6-2.2-21.9-4.1q-1.7-.4-3.5-.9c-5-1.3-9.7-2.7-14.4-4.9-4.5-2.1-8.9-3-13.8-3.7-.9-.1-1.7-.2-2.7-.4-10.1-1.3-19.7-.5-29.7,1.1-1.1.2-2.1.3-3.2.5-2.1.3-4.1.7-6.2,1-7.8,1.2-12.9-.5-19.7-4.4v2l-9-3v-2c-.8.2-1.6.5-2.4.7-3.5.3-4.7,0-7.9-1.1-8.1-2.9-13.8-3.3-21.7.4-.3.3-.7.7-1,1-1.3.3-2.7.7-4,1-4,1.3-6.1,2.9-9,6-1.7,1.3-3.3,2.7-5,4-.7.7-1.4,1.5-2.2,2.2q-1.8,1.8-3.8,1.8c-.3.7-.7,1.3-1,2-.4.6-.9,1.1-1.3,1.7-1.4,1.9-2.5,3.8-3.7,5.8-1.5,2.7-3,5.2-5,7.5h-2c-.5,1.4-1.1,2.8-1.6,4.2-.3.8-.6,1.6-.9,2.4-.6,2.6-.4,3.9.4,6.4-.7-.3-1.3-.7-2-1v5c.3-.7.7-1.3,1-2h2c.1.9.3,1.8.4,2.7,1.4,7.8,3.2,13.2,8.2,19.4q1.4,1.9,1.4,3.9c.6.2,1.3.5,2,.7,4,1.7,7.8,3.7,11.6,5.8,1.5.8,3,1.6,4.5,2.4.7.4,1.3.7,2,1.1.6.3,1.3.7,1.9,1,.7.4,1.4.7,2.1,1.1q2,1.1,4.9.9v3h2c.3-1,.7-2,1-3h2c.7-.7,1.3-1.3,2-2h3v2c1,.3,2,.7,3,1,.3-1.3.7-2.6,1-4h4c.3,1,.7,2,1,3,.9-.3,1.8-.5,2.8-.8,2.4-.7,4.7-1.3,7.1-1.8,15.1-3.4,21.9-11.9,30.1-24.4,2-3.3,3.8-6.3,5-10,1,.3,2,.7,3,1v-2h7v2c-.9.4-1.8.7-2.7,1.1-6.2,3.5-9.6,9.6-13.5,15.3-1.7,2.4-3.4,4.8-5.1,7.2-.5.7-.9,1.3-1.4,2-.4.5-.8.9-1.3,1.4h-2c-.2.6-.5,1.2-.7,1.8-2.9,4.9-7,6.8-12.3,8.2-2.7.7-5.3,1.4-8,2-.6.2-1.3.3-1.9.5-2.3.5-4.5.8-6.8,1-.8,0-1.6.2-2.4.3q-.9,0-1.8.2v2q-1.1,0-2.3.2c-1,0-2,.2-3,.3-1,0-2,.2-3,.2q-2.8.2-5.7,1.3-2.7-1.4-5-3c-.3.7-.7,1.3-1,2-6.3-2.5-12.6-5.2-18.7-8.1-1-.5-2-1-3-1.4q-2.3-1.4-3.3-4.4-.9-.4-1.8-.9c-6.5-3.4-10-13.4-12.2-20.1q-1.1-3.7,0-6c-.7-.3-1.3-.7-2-1,.2-9,2.1-15.9,6-24,.5-1.1,1.1-2.3,1.6-3.4q5.5-10.3,9.4-11.6c.2-.7.3-1.3.5-2,.2-.7.3-1.3.5-2,1-.3,2-.7,3-1,.7-1.3,1.4-2.7,2-4,2.5-2.5,5.3-4.7,8-7,.8-.6,1.5-1.3,2.3-1.9,6.2-5.1,10.6-7.1,18.7-7.1.9-.4,1.9-.7,2.8-1.1,4.2-1.2,8-1,12.2,0,.3.7.7,1.3,1,2q2,.4,4.3.6c3,.2,5.8.6,8.7,1.4.3,1.3.7,2.6,1,4,2.3.7,4.6,1.3,7,2v-2c1.9.4,3.9.9,5.8,1.3,1.1.2,2.2.5,3.3.7q2.9.9,4.4,2.6,1.6,1.7,4.6,1.5,1.8-.2,3.6-.4c1.2-.1,2.4-.2,3.6-.3,2.3-.3,4.5-.6,6.8-1,5.5-.7,11-.7,16.6-.7,1.1,0,2.2,0,3.4,0,8.9,0,16.8,1.2,24.9,5.2,12.8,5.9,27.1,7.9,41,9.1.3-1.3.7-2.6,1-4,.3,1,.7,2,1,3q1.8.8,3.9,1.2c.7.2,1.4.3,2.2.5q2,.4,3.9-.8v2c1.7.7,3.3,1.3,5,2,.7-1.3,1.3-2.6,2-4,.3,1,.7,2,1,3-.3.7-.7,1.3-1,2h3v-3c.7.3,1.3.7,2,1v2c1.7.3,3.3.7,5,1v-2c.6.4,1.2.7,1.9,1.1q1.1.5,2.1.9c.7-.3,1.3-.7,2-1q1.9.3,4.2.8,1.2.3,2.4.6c3.2.8,6.3,1.7,9.4,2.6v2c1-.2,1.9-.3,2.9-.5,5.5-.8,11.1-.5,16.7-.3,5,0,8.8-.4,13.4-2.3,2.3-1,4.6-1.7,6.9-2.5q20.1-6,38.3-16.2c1.9-1.3,3.6-1.6,5.8-2.2.3-.6.6-1.2.9-1.9,1.7-3.2,3.8-3.9,7.1-5.1q2.8.4,5,1c.7-.3,1.3-.7,2-1,.7.3,1.3.7,2,1,.3-1.7.7-3.3,1-5,3.6-.3,7.3-.7,11-1-.7.3-1.3.7-2,1,.3.7.7,1.3,1,2q1.6-1,3.2-1.9c2.6-1.5,4.8-2.6,7.8-3.1v2h2v-2c.8-.1,1.7-.2,2.6-.3,6.5-1.3,12.2-4.6,18.1-7.6q2.3-1.1,4.5-1.6c3.1-.8,4.7-3.2,6.9-5.5,2.8-2.9,5.6-5.6,8.6-8.2q8.9-7.7,15.3-17.4c1.5-3.3,3.4-6.3,5.3-9.4.7-1.1,1.3-2.3,2-3.4.6-.8,1.2-1.7,1.8-2.5h2c.1-.9.2-1.7.3-2.6.7-3.5,1.9-6,3.6-9.1,2.8-5.3,4.7-10.5,6.1-16.2h2c-.4-.6-.7-1.1-1.1-1.7-1.2-3.2-.2-4.2,1.1-7.3.8-4.5,1-8.9.9-13.5,0-13,5.2-27.6,12.1-38.5.7-1.3,1.5-2.7,2.2-4q1.8-3,3.8-4,1.1-2,2-4h2c.2-.7.5-1.4.7-2.2,1.6-3.4,3.6-5.3,6.3-7.8,1-1.3,2-2.7,3-4-2.6,0-5.2.2-7.8.3q-1.1,0-2.2,0-4.2.2-8,2-1.2,1.6-1,3.6h-9v2c-2.6-.7-5.3-1.3-8-2-.3,1-.7,2-1,3-3.7-.6-6.7-1.7-10.1-3.3-1-.5-1.9-.9-2.9-1.4-1-.5-2-1-3-1.5-8.2-4-16.4-7.7-25-10.8-1.6-.6-3.2-1.2-4.8-1.8q-1.6-.6-3.2-1.2-1.5,4-3,8h-3q-1,4.1,0,8c-1.4,9.3-6.7,17.8-11,26h-2c-.1.9-.2,1.9-.4,2.9q-.6,3.1-2.6,5.1v2h-2v3h-2c-.1.7-.2,1.5-.4,2.2-1,4.4-3.3,7.9-5.6,11.8-.6,1-1.2,2-1.8,3q-4.8,7.9-8.2,9c-.4,1.3-.7,2.7-1,4q-1.5,2.3-3.3,4.7c-.6.8-1.2,1.6-1.8,2.4-2,2-3.1,2.6-5.9,2.9-.3,1.3-.7,2.6-1,4h-3c-.2.6-.4,1.1-.6,1.7-1.8,2.9-3.9,4.2-6.7,6.1q-1.9,1.3-4.1,3.6c-.6.6-1.1,1.1-1.7,1.7h-2c-.2.6-.5,1.2-.8,1.9-1.5,2.5-2.6,3.1-5.2,4.1v2q-5.4,5-9,5v2q-2.2,1.6-5.2,3.4c-1,.6-1.9,1.2-2.9,1.8-1,.6-1.9,1.2-2.9,1.8-.9.6-1.8,1.1-2.7,1.7q-2.3,1.3-4.3,1.3v2c-.9.1-1.9.2-2.9.4q-3.2.3-5.1,2.6c-1,.3-2,.7-3,1-.7,1-1.3,2-2,3q-3.5.8-7,1c-.7-.7-1.3-1.3-2-2-.3,1.3-.7,2.6-1,4h-2c-.7-.7-1.3-1.3-2-2-.2.6-.5,1.2-.7,1.9-1.7,2.7-2.9,3-5.9,3.9-.8.2-1.6.5-2.5.7-.6.2-1.3.3-1.9.5-.3-1-.7-2-1-3,2.3-.3,4.6-.7,7-1-.3-.3-.7-.7-1-1-3.6,1-7.3,2-11,3v2h-5c.7-.7,1.3-1.3,2-2q-7.7.5-15,3v-2c-1.3.7-2.6,1.3-4,2v-2c-2,.7-4,1.3-6,2v2h-4v-3c-2.6,0-5.1,0-7.7,0-.7,0-1.4,0-2.2,0-3.9,0-7.4.3-11.1,1.1-1.3-.7-2.7-1.3-4-2q-2.2.3-4,1v-3h-4v2c-1.3-.7-2.6-1.3-4-2-.3,1.3-.7,2.6-1,4h-5c.3-1.3.7-2.6,1-4-.3.3-.7.7-1,1-1.7,0-3.3,0-5,0v-2h-3c-.3,1.3-.7,2.6-1,4v-3h-3v-2q-3,.7-4.3,2.6c-2.5,2.1-4.6,1.6-7.7,1.4v-1c-5.6-.9-9.6-1.3-15,1h-1c-.7-1-1.3-2-2-3h2v-2c-.8.4-1.6.7-2.4,1.1-4.9,1.2-8.8.1-13.6-1.1v2h-2c-.3-.7-.7-1.3-1-2h-17v-2c-.9.5-1.9,1-2.9,1.5q-3.1,1.5-5.1,1.5v2h-2v-2c-2-.3-4-.7-6-1v4c-.7,0-1.5,0-2.2-.1q-2.7,0-4.8,1.1c-2.5,1.2-4.3,1.2-7,1-.3-1.3-.7-2.6-1-4h-2c.3,1.3.7,2.6,1,4-2.7.5-5.5,1-8.2,1.5-.8.1-1.5.3-2.3.4-3.9.7-7.5,1.3-11.5,1.1-12,0-27.4,9.7-38,15-.8.4-1.6.8-2.5,1.2-.5.3-1,.5-1.5.8v2q-3,2-6,2c-.3,1-.7,2-1,3q-4.3,3-7,3c-.3.7-.7,1.3-1,2-1.3,1.3-2.7,2.5-4,3.8-5.8,5.7-9.8,12.3-14,19.2-.7,1-1.3,2-2,3h-2c-.1,1-.2,1.9-.4,2.9-.4,2.8-1,5.5-1.7,8.2-1.3,5.6-1.1,11.1-.9,16.8h-3c.3,1.3.7,2.6,1,4h2c-.3,1.3-.7,2.6-1,4,.7.3,1.3.7,2,1,.3.7.7,1.3,1,2,.5.6,1,1.2,1.6,1.8,1.7,2.6,1.7,4.1,1.4,7.2.7-.3,1.3-.7,2-1l7.1,14.2c.3.6.7,1.3,1,2,.8,1.6,1.5,3.1,2.1,4.7,2.6,4.6,6.2,8.2,9.8,12.1q-1,2-3,5h2c.3-.7.7-1.3,1-2,1.3.7,2.6,1.3,4,2-.3,1-.7,2-1,3,.7.3,1.3.7,2,1-.3.3-.7.7-1,1,.7.3,1.3.7,2,1v3h6v3c1.3-.7,2.6-1.3,4-2,.3,1.3.7,2.6,1,4,.9,0,1.9,0,2.9,0q3.1,0,5.1,1.1v2c1-.3,2-.7,3-1v2h4c.3-1,.7-2,1-3,1,.7,2,1.3,3,2,.3-.3.7-.7,1-1,1.4-.2,2.9-.4,4.3-.5q1.3-.1,2.7-.2,1.4-.1,2.8-.2c1.8-.2,3.6-.3,5.5-.5.8,0,1.6-.1,2.5-.2q2.3-.2,4.4-.8,1.9-.5,4.9-.5v-2h2c.5-.5.9-.9,1.4-1.4,1.9-1.8,3.1-2,5.6-2.6.7-.7,1.3-1.3,2-2,4.7-2.8,9.3-5.5,14.6-7.1q2.6-.7,3.8-3c.2-.6.4-1.2.6-1.9h2c.3-1,.7-2,1-3,1.5-1.8,2.7-2.9,4.9-3.8,2.5-1.4,3.7-2.9,5.5-5.2.6-.8,1.2-1.6,1.8-2.4,2.3-3.2,4.4-6.4,6.5-9.7q1.3-1.8,3.3-3.8c.6-1.5,1.1-3.1,1.6-4.6.3-.8.5-1.6.8-2.5.2-.6.4-1.3.6-1.9h2c.9-2.6,1.1-3.6,0-6.2-.4-.6-.7-1.2-1.1-1.8q2.9-.2,6,0c3.6,5.5,3.5,11.6,3,18-.8,4.1-1.9,8-3,12-.2.7-.4,1.5-.5,2.2q-.5,1.8-1.5,3.8c-.3.7-.6,1.3-.9,2-1.3,2.5-3.1,4-5.1,6q-.6,2.1-1,4h-2q-.2,1.1-.3,2.3c-.8,3-1.5,3.6-3.7,5.7-1.9,3-3.6,6.1-5.1,9.3-1.4,2.8-3.9,4.6-6.2,6.7-.6.5-1.2,1-1.8,1.6q-1.9,1.4-4,2.5c-2.4,1.2-2.7,2.5-3.8,4.9-1.3,1.3-2.7,2.7-4,4q-1.2,2.1-2,4h-3c-.6.6-1.2,1.2-1.8,1.8-2.8,2.7-5.7,4-9.2,5.3q-1,.4-2,.8c-10,3.7-19.4,4.3-30,4.3-1,0-2,0-3,0-9.2,0-18-1.1-26.5-4.7-1-.4-2-.8-3-1.2q-2.3-1.3-3.3-4.3-.8.4-1.7.8-2.3.2-4.9-1.5c-.8-.7-1.6-1.5-2.4-2.2-.6-.5-1.2-1.1-1.8-1.6q-1.2-1.4-1.2-3.4c-.8,0-1.6-.2-2.4-.2q-1.3-.4-2.6-.8c-.7-1.3-1.3-2.7-2-4q-1.7-1.7-3.6-3.1-1.9-1.5-3.4-2.9v-2c-.6-.3-1.2-.6-1.8-.9q-2.2-1.1-5.2-3.1c-.3.7-.7,1.3-1,2-.7-.7-1.3-1.3-2-2v-3h-2v-2h-2q-1-1.2-1.9-2.5-1-1.2-2.1-2.5h-3q-1-3-2-6h-4q-1.4-2.1-3-5c-.9-1.2-1.7-2.3-2.6-3.4-2.3-3.2-2.7-5.7-3.4-9.6-.8-1.3-1.6-2.5-2.5-3.7-3.8-5.6-3.5-11.8-3.5-18.3h-2q-2-29,1-35c.1-1.2.3-2.4.4-3.6.5-4.6,1.8-8.7,3.2-13q.4-1.2.8-2.4c3.5-9.9,7.8-19.9,14.6-28h2q.4-1.1.8-2.3c1.4-3,2.6-3.8,5.2-5.7,1-1.6,2-3.3,3-5,5.1-7.3,12.1-10.6,20-14.4,3.5-1.8,6.7-3.9,10-6.3,2.3-1.4,4.5-2.3,7-3.3,1-.7,2-1.3,3-2,2.8-.7,5.1-1,8-1,.5-.5.9-.9,1.4-1.4,2-2,3.7-2.5,6.5-3.2.8-.2,1.7-.5,2.6-.7,2.5-.6,5-1.1,7.6-1.6.8-.2,1.6-.3,2.4-.5,2.6-.5,5.3-1,7.9-1.5.9-.2,1.8-.4,2.7-.5,5.7-1.1,11.3-1.9,17-2.5.3,1,.7,2,1,3,.7,0,1.4-.1,2.1-.2.9,0,1.8-.2,2.7-.3q1.3-.1,2.7-.3,2.5-.2,5.5-.2c1-.2,2-.4,3.1-.6q2.9-.4,4.9.6c-.3-1.3-.7-2.6-1-4h2c.3.7.7,1.3,1,2,.3-.3.7-.7,1-1q1.9-.7,4-1c.7.7,1.3,1.3,2,2,.3-1,.7-2,1-3h2c.3,1,.7,2,1,3,2.6-.3,5.3-.6,7.9-.9.8,0,1.5-.2,2.3-.2,1.9-.2,3.9-.5,5.8-.9.3-.7.7-1.3,1-2,3.6-.9,5.5-1.2,9,0v2q4.6-.5,9-2c2,.6,4,1.3,6,2-.3-1.3-.7-2.6-1-4h6c-.3,1-.7,2-1,3,2-.3,4-.7,6-1v-3c10.2-1.2,20.3-2.1,30.5-2.6,8.7-.4,17.3-1.2,25.9-1.9,5.6-.5,11.2-.9,16.9-1.2,2.6-.2,5.1-.7,7.7-1.2v2h2c-.3-1-.7-2-1-3,2.4-.7,4.9-1.4,7.3-2.1q1-.3,2.1-.6,5.3-1.4,8.6-.3h-2v2q2.3-1,4-4c3.2-2.5,5.8-4.1,9.9-3.8.7.2,1.4.5,2.1.8.7-1,1.3-2,2-3,1.4-1.2,2.8-2.3,4.3-3.4.8-.6,1.6-1.2,2.4-1.9,1.7-1.3,3.5-2.6,5.2-3.9,2.1-1.9,2.9-3.3,4.1-5.8q2-2.2,4-4h2q.4-.9.8-1.7c1.3-2.5,2.9-4.3,4.8-6.4q2.5-2.7,4.4-5.9h2q.4-1.1.8-2.3c1.1-2.6,2-4,4.2-5.7h2v-3h2c.3-.5.5-1.1.8-1.7,1.3-2.6,2.8-5.2,4.2-7.7,2.1-3.8,3.7-7.4,5-11.6.7-.7,1.3-1.3,2-2,.3-1.7.7-3.3,1-5,.5-1.3.9-2.5,1.4-3.8,2.7-6.9,3.7-12.8,3.6-20.2.3-1.7.7-3.3,1-5v-3.3c0-3.3.3-6.4.8-9.6.6-5.4.7-10.1-1.8-15-.3-.7-.7-1.3-1-2h2v-3c-.5-.1-1.1-.2-1.6-.3-4-1.1-7.7-2.9-11.5-4.5-2.3-.9-4.5-1.6-6.9-2.2v-2h-4v-2q-6-1.1-11.8.1c-2.6,2.2-4.9,4.4-7.2,6.9-.6.6-1.1,1.2-1.7,1.8-4.4,4.7-8.1,9.7-11.7,15.1-.4.7-.9,1.3-1.3,2-1.8,2.7-3.2,5.1-4.2,8.1-1.7,1.7-3.3,3.3-5,5-1.4,2-2.7,3.9-4,6,.7.7,1.3,1.3,2,2-1.1.3-2.3.6-3.4.9-1.2.4-2.4.7-3.6,1.1-.3.7-.7,1.3-1,2,.7.3,1.3.7,2,1v2h-3v-2c-1.3,1.1-2.6,2.2-3.9,3.4-.7.6-1.5,1.3-2.2,1.9q-1.9,1.6-2.8,3.7c.3,1,.7,2,1,3-1.3.7-2.6,1.3-4,2l1-4c-.6.5-1.2,1-1.9,1.5q-2.1,1.5-4.1,1.5v4q-1,2.2-2,4h-7q0,1.9-.2,3.8c-.4,3.5-.7,4.1-3.2,6.8q-2.6,1.5-4.6,1.5c-.3,1-.7,2-1,3q-2.1,1.8-5,3-3.8-.8-7-2v2h3c-.3,1-.7,2-1,3-2.6.3-5.3.7-8,1-.3,1-.7,2-1,3-2,.3-4,.7-6,1v2c-.6.3-1.1.5-1.7.8-2.6,1.2-5.3,2.4-7.9,3.5-.9.4-1.8.8-2.7,1.2-3.7,1.6-7.3,3.3-10.9,5.1-2.9,1.4-5.7,2.4-8.7,3.3q-1.5.5-3,1-18.6,6.2-25,3v2q-.9,0-1.8,0c-2.7,0-5.5,0-8.2,0-.9,0-1.9,0-2.8,0-4.7,0-9.2.1-13.9.8-11.3,1.4-22.6,1.5-34,1.5-2.5,0-5,0-7.4,0-12.1,0-23.5-1.2-35.3-4.2-.6-.2-1.3-.3-2-.5-4.2-1.1-8.5-2.3-12.7-3.5-1.5-.4-3-.8-4.6-1.2-.8-.2-1.6-.4-2.4-.6-1.6-.4-3.2-.9-4.9-1.3-.8-.2-1.5-.4-2.3-.6q-1-.3-2.1-.6-1.8-.7-3.8-2.7-1.4,0-4,1c.3-1.7.7-3.3,1-5-.7-.2-1.4-.5-2.1-.7-3.5-1.6-6.3-3.7-9.2-6-1.1-.9-2.3-1.8-3.4-2.7-.6-.4-1.1-.9-1.7-1.3-2-1.6-4.1-3.2-6.2-4.7-.6-.4-1.2-.9-1.8-1.3-1.5-1.1-3-2.1-4.6-3.2-4.2-3.4-8.2-7.1-12-11q-.9-.9-1.8-1.8-.6-.6-1.2-1.2c-.7.7-1.3,1.3-2,2l-1-6h-2c-1.8-1.6-2.9-2.8-4-5-1.6.7-3.3,1.3-5,2q-.4-1.5-.9-2.9-.8-3.2-3.1-4.1v-4q-1.2-.6-2.4-1.3c-.8-.6-1.7-1.1-2.6-1.7-.3-2.3-.7-4.7-1-7-2.1-4.2-4.3-8.4-7.7-11.6q-1.3-1.4-1.8-3.8-.3-2.7-2.4-4.3c-2.7-2.9-3.4-5.6-4.4-9.3q-.5-2.1-2.7-2.9c-.7-2-1.4-4-2-6-.5-1.4-.9-2.9-1.4-4.3-.2-.7-.4-1.4-.6-2.1-.9-2.3-1.8-4.5-2.9-6.7-2.1-4.8-3.4-9.5-4.6-14.6-.2-.9-.4-1.8-.6-2.7-.4-1.9-.9-3.7-1.3-5.6-.7-2.8-1.3-5.7-2-8.5-2.9-12.3-5.6-24.4-6.1-37q0-5.3-1-10.5c-.7-3.1,0-5.9.5-9h-2c0-4.4,0-8.8-.1-13.3,0-1.5,0-3,0-4.5-.1-9.6.4-18.7,1.9-28.2.6-3.9,1-7.8,1.4-11.6,3.8-33,8.9-65.5,22.5-96.2,1.2-2.8,1.9-5.3,2.3-8.3h2v-5h2q.2-.8.3-1.7c.8-2.7,1.9-4.9,3.1-7.4.5-1,1-1.9,1.5-2.9.5-1,1-2,1.6-3,1-2,2-4,3-6,.4-.9.9-1.8,1.4-2.7q1.2-2.4,2.1-5.3h2c.3-.7.5-1.4.8-2.1,3-7.3,6.5-14.3,12.2-19.9.3-.6.6-1.3.9-1.9q1.1-2.1,3.5-4.4c2.7-2.7,3.9-5.2,5.6-8.6,1.3-1.4,2.6-2.7,4-4,.7-.9,1.4-1.8,2.1-2.8.6-.7,1.2-1.5,1.9-2.2h2c.3-.7.7-1.3,1-2,.7-.3,1.3-.7,2-1q.4-.9.8-1.8c1.6-2.9,3.6-4.2,6.2-6.2,1.4-1.3,2.7-2.6,4-4,1.6-1.7,3.3-3.4,5-5h1q.4-1,.8-1.9,1.2-2.1,4.2-3.1c.3-1,.7-2,1-3,1-.3,2-.7,3-1q.4-.9.9-1.9c1.5-2.8,3.4-3.5,6.1-5.1,1-1.3,2-2.6,3-4,.7-.3,1.3-.7,2-1l2.3-2.3q2.7-2.7,5.2-4.7,2.6-2,4.6-4.8c.6-.7,1.2-1.5,1.8-2.2h2v-2h2q.4-.9.8-1.9,1.2-2.1,3.3-3.1c.6-.4,1.3-.7,1.9-1.1q.8-2.6,1-5h2c.2-.7.4-1.3.6-2,1.9-4.2,4.6-7.7,7.4-11.3.5-.7,1.1-1.5,1.7-2.2q.8-1,1.6-2.1c.5-.6,1-1.3,1.5-1.9.4-.5.9-.9,1.3-1.4h2q.2-1.1.3-2.3c.8-3,1.6-3.6,3.7-5.7q1-1.8,1.9-3.7c1.5-3,3-5.9,4.8-8.8.4-.7.8-1.3,1.2-2,.4-.5.8-1,1.1-1.5h2c.1-.9.2-1.9.4-2.8q.6-3.2,2.6-6.2h2q.4-1.6.8-3.3c1.2-3.7,1.6-4.2,4.2-6.7,2.6-4,4.7-8,6.1-12.5.3-.8.6-1.6.9-2.5,1-.3,2-.7,3-1q.2-1.1.3-2.1c.8-3.3,2.1-5.9,3.7-8.9h2q.4-1.3.7-2.6c1.4-3.7,3.2-6.2,5.8-9.2.8-1,1.6-1.9,2.4-2.9.7-.7,1.4-1.4,2.1-2.2h2v-2c1.6-1,3.3-2,5-3,1.7-1.3,3.5-2.6,5.2-3.9,13.4-9.8,28.5-13.8,45-11.7,9.5,2.3,17.7,8,23.8,15.6v2h2c.7,1.2,1.4,2.5,2.1,3.8.4.7.8,1.4,1.2,2.1.9,2.5.9,3.7-.2,6.1-1,.3-2,.7-3,1q0-1.6-.1-3.2c-1.2-5-2.9-5.8-6.9-8.8v-2q-.8-.3-1.6-.7c-3.7-2-7.5-4.4-10.4-7.3-11.5-3-27.2-1.8-38,3-2.3,1.5-4.6,3-6.9,4.6-2.3,1.6-4.7,3-7.1,4.4-5,3.1-9.2,6.5-12.7,11.3-.4.6-.9,1.1-1.3,1.7h-2c-.5.8-.9,1.6-1.4,2.4q-1.6,2.6-3.8,3.4c-.6,0-1.2.1-1.8.2.2.8.4,1.6.6,2.4q.4,2.6-.6,4.6h-2l-1,2c-.5.6-.9,1.1-1.4,1.7-2,2.9-2.7,5.9-3.6,9.3h-3v7h-3c-1.5,2.6-2,3.9-2,7q-.3,2.1-1,4c-1,.7-2,1.3-3,2v-3q-.2,1.6-.4,3.3-.6,3.7-2.6,6.7c-1,.3-2,.7-3,1v3c-1,1.7-1.9,3.5-3,5.2-1.2,2.2-2.2,4.4-3,6.8-1-.3-2-.7-3-1v5h-2c-.1,1-.2,1.9-.4,2.9-.2,1-.4,2-.6,3.1-.7.3-1.3.7-2,1v-2h-2c0,1.1.1,2.2.2,3.3q-.2,3.7-1.7,5.6c-.5.4-1,.7-1.5,1.1-.7-.3-1.3-.7-2-1-.3.7-.7,1.3-1,2,.7.3,1.3.7,2,1-.7,1-1.3,2-2,3h-3c.3,1,.7,2,1,3h-3c.3,1,.7,2,1,3-1.6.3-3.3.7-5,1,.2.6.5,1.1.7,1.7q.3,2.3-1.2,4.7c-.7.8-1.4,1.7-2.2,2.5-.7.8-1.4,1.7-2.1,2.5-.7.8-1.4,1.7-2.2,2.5-.7.9-1.3,1.7-2,2.6-1.9,2.3-3.8,4.2-6,6.1-.7.6-1.3,1.2-2,1.8q-1.9,1.6-4.9,3.6c-.3.3-.7.7-1,1h-4v5c-1.6-.3-3.3-.7-5-1-1,1.2-2,2.5-2.9,3.8-.5.7-1.1,1.4-1.7,2.1q-1.5,2-1.9,4.2c-.9,3.4-3.8,4.8-6.5,6.9v-3c-1,1-2,2-3,3h2l-1,4h-3c-.3.7-.7,1.3-1,2-.7-.3-1.3-.7-2-1v3q-1.3,2.6-3,5c-1,.3-2,.7-3,1q-1.5,1.7-2.9,3.8c-2.5,3.4-4.9,6.4-8.1,9.2h-2c-.3,1-.7,2-1,3-1.3-.3-2.6-.7-4-1q-2.1,2.8-4,6l1,3q-1.8,2-4,4h-3c-1.6,2.3-3,4.6-4.4,7-.4.7-.8,1.4-1.2,2.1-2.1,3.5-4,7.1-5.8,10.8q-1.6,3.1-3.6,4.1c-.4,1.3-.7,2.7-1,4-.7,2-1.3,4-2,6h-2c-.1.6-.3,1.1-.4,1.7-.6,2.3-1.5,4.3-2.5,6.5-.4.8-.7,1.6-1.1,2.4-.8,1.7-1.5,3.3-2.3,5q-.5,1.2-1.1,2.4-.5,1.1-1,2.2-.8,1.8-.7,3.8h-2q-.2,1-.3,2.1c-.8,3.4-2,6.4-3.3,9.7-2.8,7.2-5,14.6-7.1,22-.3,1-.6,2.1-.9,3.1-1.9,7-3.3,14-4.4,21.1-.3,2-.7,4-1.1,6-.2.9-.3,1.7-.5,2.6-.3,1.5-.6,3-1,4.5-1,4.1-.8,8,.6,11.9-.7.3-1.3.7-2,1,.7.3,1.3.7,2,1l-1,2h-2c-1.8,16-3.5,31.9-4,48h2c-.3,1.3-.7,2.6-1,4-.7-.3-1.3-.7-2-1,.3,1.9.6,3.8.9,5.8.2,1.1.3,2.1.5,3.2.4,2.4.9,4.7,1.5,7h-2v2c1-.3,2-.7,3-1v3c-.7.3-1.3.7-2,1,.3,4.1.6,8.2.9,12.2,0,1.1.2,2.3.2,3.5.7,10,1.8,19.8,5.2,29.3q.7,2,1.2,5.7.3,3.4,2,6.2c1.4,2.9,1.7,4.4,2,7.4.4,4.9,1.8,9.1,3.5,13.7.4,1.1.8,2.1,1.2,3.2q2.5,6.9,6.1,13.3c1.9,2.8,2.1,4.2,1.7,7.5h2c.2.7.5,1.4.7,2.2,1.9,5.5,3.9,10.1,7.3,14.8v2c.7.3,1.3.7,2,1,.7,1.6,1.4,3.3,2,5,.5,1.1,1.1,2.1,1.6,3.2q1.4,2.8,1.4,4.8h2v3c1,.3,2,.7,3,1q1.4,1.5,2.7,3.4.7.9,1.3,1.8,1,1.8,1,4.8c.7.2,1.4.4,2.2.6,2.7,1.3,3.6,2.1,5.4,4.4q2.1,3.1,5.4,3.9c.2.7.5,1.4.8,2.2,1.8,4,4.7,6.3,8.2,8.8,1,.3,2,.7,3,1,.5.7,1.1,1.4,1.6,2.1,3.3,4,7.3,6.8,11.5,9.8.8.6,1.6,1.2,2.4,1.8q10.9,8.2,23.6,13,1.5.3,3,.7c.9.2,1.9.4,2.8.6,1.5.4,3.1.8,4.6,1.2q3.2,1.1,5.4-.2c.3.7.7,1.3,1,2h4c.3.7.7,1.3,1,2h4q2.2.4,4,1c.3.7.7,1.3,1,2q3.1.7,6.8,1.2,1.9.3,3.8.5c2.9.2,4.7.2,7.4-.7v2c3,.3,5.9.7,9,1v-2c2.3.7,4.6,1.3,7,2v-2c1,.3,2,.7,3,1,1.5,0,3,.1,4.4,0,.8,0,1.7,0,2.6,0,.9,0,1.8,0,2.7,0,.9,0,1.8,0,2.7,0,2.2,0,4.4,0,6.6,0v-2c3.7-.2,5.8.3,9,2h3c.3-.7.7-1.3,1-2h4v2c3.3-.3,6.6-.7,10-1,.3-1,.7-2,1-3,1,.3,2,.7,3,1v2h2c.3-1,.7-2,1-3,.6.4,1.2.7,1.8,1.1,2.6,1.1,3.6.9,6.2,0v-2c.8-.1,1.6-.2,2.4-.4,1.1-.2,2.1-.3,3.2-.5,1.1-.2,2.1-.3,3.2-.5q3.1-.5,5.8-1.7,2.3-.9,4.9-.3c.8.1,1.6.3,2.4.4.4-.4.8-.9,1.2-1.3,2.6-2.5,5.7-3.4,9-4.6,4.2-1.6,8.2-3.2,12.2-5.2,3.4-1.8,6.9-2.9,10.6-4.1,2.6-.9,4.7-2.3,7-3.7q1.8-.6,3.7-1.3c6.7-2.4,12.6-6.4,18.3-10.6q3-2.1,5-2.1c.3-1,.7-2,1-3h3c.2-.6.5-1.2.8-1.8,1.4-2.6,3-4.1,5.2-6,.7-.6,1.4-1.2,2.1-1.9q1.9-1.4,3.9-1.4v-2c1.3-.3,2.6-.7,4-1v-2c1.7-1.7,3.3-3.3,5-5,.7.3,1.3.7,2,1q.4-.8.8-1.7c1.9-3.6,4.2-6.5,7.5-8.9.6-.5,1.2-.9,1.8-1.4v-3h3c.3-1,.7-2,1-3,.7-.7,1.4-1.3,2.1-2,2.6-2.5,4.3-5.2,6.2-8.2,6.1-9.8,13.4-17.8,21.7-25.8.7-.7,1.3-1.3,2-2q-.8-.3-1.7-.6c-5.9-2.3-11.5-4.9-17.1-7.8-5-2.5-10-4.7-15.2-6.6v-2c-1.2,0-2.4-.2-3.6-.2-4.6-.6-7.5-2.3-11.4-4.8-1.6-.7-3.3-1.4-5-2-1.7-.7-3.3-1.3-5-2-.3.6-.7,1.3-1,1.9-.4.8-.9,1.7-1.4,2.5q-.7,1.2-1.3,2.5c-1.8,2.8-3.1,3-6.3,4.1,1,.3,2,.7,3,1-.3,1-.7,2-1,3h-4q0,1.4,0,2.9,0,3.1-1.1,5.1h-2c-.2.7-.5,1.5-.7,2.2-1.6,3.3-3.3,4.7-6.3,6.8h-2v2q-4.4,3-7,3c-.2.6-.4,1.1-.6,1.7-1.9,3.1-4.7,4.6-7.8,6.4-.6.3-1.2.7-1.8,1.1-6,3.6-12.3,6.5-18.7,9.4-1.8.8-3.6,1.7-5.4,2.6-4.3,2.1-7.2,1.9-11.8.9v2h-20c-.3-.7-.7-1.3-1-2-.6.2-1.2.3-1.8.5q-2.2.5-5.2.5v-2c-1.3.3-2.6.7-4,1-.3-1-.7-2-1-3-.8.2-1.5.4-2.3.6q-2.7.4-5.7-1.6c-.7.3-1.3.7-2,1v-2c-2.3.3-4.6.7-7,1-.3-1.3-.7-2.6-1-4-2.7,0-4.8,0-7.4.8-3.8.4-5.5-1.7-8.6-3.8q-3-.2-6,0-3.4-1-6-2v2c-.7-.3-1.3-.7-2-1,.3-.7.7-1.3,1-2-.7-.3-1.3-.7-2-1-1-.7-2-1.3-3-2q-1.2,0-2.5,0c-3.1,0-3.4-.9-5.5-3.1h-2.5q-2.5,0-3.9-1.3-.8-.8-1.6-1.7c-2.5-1.8-5.2-3.5-7.9-5.1-.7-.5-1.4-.9-2.1-1.4-3.7-2.3-6.6-3.7-11-4.5q-1-1.5-2-3h-2c-.2-.6-.4-1.1-.6-1.7-1.7-2.8-3.9-4-6.5-5.8-2.8-2.1-4.8-4.7-7-7.3-2.8-3.1-6-5.8-9.2-8.5-.6-.5-1.1-1.1-1.7-1.7v-2c-1-.3-2-.7-3-1v-2h-2c-1.3-2.3-2.6-4.6-4-7h-3c-3.6-4.3-6.2-9.8-8-15,.3-1,.7-2,1-3-1-.3-2-.7-3-1q-1.2-2.4-2-5,1-3,2-5c-.7-.3-1.3-.7-2-1-.5-1.7-.9-3.3-1.4-5-.7-2.1-1.6-3.9-2.7-5.9-2.2-4.2-3-8.4-2.9-13.1.3-.7.7-1.3,1-2h-2c0-1,0-2,0-3.1,0-1.4,0-2.7,0-4.1,0-.7,0-1.3,0-2,0-2.8,0-5.4-.7-8.2-.5-3.3,0-6.1.4-9.4,3.2-24.8-1.5-50.3-10.5-73.5-6-16-5.7-34,.8-49.7,1.2-2.6,2.5-5.1,3.8-7.6,1.2-2.4,2.1-4.8,3-7.4,2.4-6.1,6.2-10.9,10.2-16.1,2.1-3,4.2-5.9,6.2-8.9q1.8-2.1,4.8-3.1c.1-.8.2-1.6.4-2.4.2-.8.4-1.7.6-2.6.7-.3,1.3-.7,2-1,.7.3,1.3.7,2,1v-4c.6-.2,1.2-.4,1.8-.6,3.2-2.1,3.8-5,5.2-8.4,1-.7,2-1.3,3-2v-2q1.5-.9,2.9-1.8,3.3-1.9,3.8-5.2.2-1.5.3-3c1-1.3,2-2.7,3-4,1.3-2.5,2.6-5.1,3.8-7.6,2.2-4.5,4.4-8.9,7.1-13.2,7.8-12.8,13.2-26.6,18.1-40.7,1.7-5,3.5-9.7,6-14.5.6-1.5,1.1-3.1,1.6-4.6.9-3,2-5.6,3.4-8.4h2c-.3-1.7-.7-3.3-1-5h3q3-6.5,3.9-13.6c0-5,2.4-8.3,5.1-12.4h2v-4c1-.3,2-.7,3-1,.3-1.6.7-3.3,1-5h3c.2-.9.5-1.9.8-2.9,1.5-3.6,2-3.5,5.2-5.1q1.8-3,3-6h2c.1-.7.2-1.4.4-2.1.7-3.3,1.8-6.3,3-9.5q.6-1.7,1.2-3.4c1.5-3.1,2.9-4.8,5.4-7.1.5-.5,1-1,1.5-1.6,1.8-1.7,3.6-3.2,5.6-4.6.7-.5,1.4-1.1,2.1-1.6q1.8-1.2,3.8-1.2c.2-.6.5-1.2.7-1.8,2.5-4.2,7-6.2,11.3-8.2,2.4-.5,4.7-.8,7.2-.9q1.9,0,3.8-1.1c.7.1,1.4.3,2.2.4q2.8.7,5.8.5c8.5-.1,18.3,1.3,26,5.1.3.7.7,1.3,1,2,1-.3,2-.7,3-1q4,4.2,4.1,7.6c-1.4,3.1-3,3.8-6.1,5.4-.6.5-1.1,1.1-1.7,1.6-3.4,2-6.4,1.4-10.1.8-.7,0-1.4-.2-2.1-.2-5.2-.7-8.7-2.4-13.1-5.2v-3c-6.2-.3-10.5-.3-16,3h-2v2q-1.3,1.2-3.1,2.6c-10.8,9.1-16.6,23.4-20.2,36.9-1.3,4.5-3,8.8-4.6,13.1-1.1,3.5-1.7,6.8-2.1,10.4h-2c0,1.2-.1,2.4-.2,3.7-.7,6.7-3.3,12.6-5.7,18.8-.9,2.3-1.8,4.7-2.7,7-.4,1.1-.8,2.2-1.3,3.4-2.3,6.1-4.3,12.2-5.8,18.5-.7,2.9-1.4,5.8-2.4,8.6h-2c0,1.3-.1,2.5-.2,3.8-.6,6-3.1,10.9-5.8,16.2h-2c0,.7-.2,1.4-.2,2.1-.9,3.5-2.7,5.9-4.8,8.9-.7,2-1.3,4-2,6-.7.3-1.3.7-2,1-1.3,2.5-2.4,5.1-3.5,7.8q-1.5,2.2-4.1,2.9c-.8.1-1.6.2-2.4.3q-1.4,2-2,4c.7.7,1.3,1.3,2,2-2.3,1.7-4.6,3.4-7,5v3h-2v4h-3c.3,1,.7,2,1,3q-1.4,2.7-3.3,5.7c-.6,1-1.3,2-1.9,3q-.9,1.1-1.8,2.3h-2q-1.6,5.5-3,11h-1q-.2,1.6-.3,3.2-.7,3.8-2.1,6.1c-2,3.4-2.4,6.5-3,10.3-.5,2.4-1.4,4.2-2.5,6.4-.4,1.7-.7,3.3-1,5-.3,1-.6,2.1-.9,3.1-1.4,4.9-2.2,9.9-3.1,14.9-.2,1-.4,2-.5,3-2.3,16.6-1.2,34.1,2.9,50.4.7,3,1.4,6,2,8.9,2.9,13.6,6.6,26.7,11.6,39.7.4,1.1.9,2.3,1.3,3.4,5.6,14,13.7,30.9,26.7,39.6,1.3,1.3,2.6,2.7,3.9,4.1q1.9,2.1,4.2,2.4,1.9.6,3.4,3.1,1.3,2.8,4.2,3.3c.8,0,1.5.1,2.3.2v2q2.2,1.5,5,3,6.8,3.8,9,6c.7.1,1.3.2,2,.4.7.2,1.3.4,2,.6.3.7.6,1.3.9,2,.4.7.7,1.3,1.1,2q2.6.8,5,1v2c.6-.2,1.2-.4,1.8-.6q2.2-.4,5.2.6v3c.6-.2,1.2-.4,1.9-.6q2.1-.4,4.1.6v3c.6-.2,1.2-.4,1.8-.6q2.2-.4,5.2.6v2c4.3,1,8.6,2,13,3,1-2.6,2-5.3,3-8h-2c.3-6.6,1.7-11.3,5-17,.3-.7.7-1.3,1-2-1-.4-2.1-.9-3.1-1.4-7-3-13.9-6.1-20.7-9.6-3.3-1.6-6.7-2.8-10.2-4.1v-2c-2-.3-4-.7-6-1v-2q-1.1.1-2.1.2c-3.8-.3-5.7-2.1-8.9-4.2-4.6-1.7-7.3-2-12-1q-7.4-.4-9-2c-.1-2.6-.2-5.1-.3-7.7,0-.8,0-1.6,0-2.4,0-1.7,0-3.4-.1-5.1,0-4.4-.2-8.7-.3-13.1,0-.9,0-1.7,0-2.6-.2-7.3-.5-14.5-.9-21.8-.3-5.5-.3-10.9-.3-16.4h3v-4c-1-.3-2-.7-3-1,.2-1.1.3-2.2.5-3.4q.5-3.3.5-5.6v-4h2v-2h-2c-.3-2-.7-4-1-6h2c.3-.7.7-1.3,1-2h-3v-2h3v-13h-4c.5-3.7,1.1-6.7,3-10h-2c0-4.8,0-9.2,1-14h-2v-2h2v-2h-2c.7-3,1.3-5.9,2-9-.7-.3-1.3-.7-2-1l1-4h-2c.2-.7.3-1.4.5-2.1.2-.9.4-1.8.6-2.8.2-.9.4-1.8.6-2.7,0-.8.2-1.6.2-2.4-.7-.7-1.3-1.3-2-2-1.4-3.5-1.7-6.3-1-10,2.5-3,5.3-5.3,8.4-7.8,2.4-2.1,3.5-3.3,4.6-6.2h3q.4-.9.8-1.8c1.2-2.2,2.4-3.5,4.2-5.2.7.3,1.3.7,2,1-.3,1-.7,2-1,3,.4-.5.9-1,1.4-1.6,3.4-4,6.9-7.7,10.6-11.4,1.3-1.7,2.7-3.3,4-5,.7-.7,1.3-1.3,2-2h-2l3-6h2c.7-1.3,1.3-2.6,2-4h2v-3h2v-2c1.7-1.3,3.5-2.4,5.4-3.6,2-1.7,2-2.9,2.6-5.4,1-.3,2-.7,3-1q1.2-2,2-4h2q.4-1,.8-1.9,1.2-2.1,3.4-2.8.9-.1,1.9-.2c.3-1.3.7-2.6,1-4,1.3-.3,2.6-.7,4-1v-4h2v-2h2q.3-.8.7-1.7c1.7-3,3.9-4.9,6.3-7.3.7-.8,1.3-1.7,2-2.5,2.2-2.7,4.6-5.1,7-7.5.8-1,1.6-1.9,2.4-2.9,1.9-2.3,3.8-4.2,6.1-6.1,3.2-2.7,5.9-5.7,8.5-9,1.2-1.5,2.4-2.9,3.7-4.4q.9-1,1.8-2.1,1.6-1.5,3.6-1.5v-2h2v-3c1.3-.3,2.6-.7,4-1,.3-1.3.7-2.6,1-4,1.3-.3,2.6-.7,4-1,.3-1.3.7-2.6,1-4h2c.3-1,.7-2,1-3h2q.4-1,.8-1.9,1.2-2.1,4.2-3.1c.7-1.3,1.4-2.6,2-4q1.4-1.7,3-3.4.9-.9,1.7-1.8.9-.9,1.8-1.9c1.2-1.3,2.4-2.5,3.6-3.8.5-.6,1.1-1.1,1.6-1.7,3.2-3.6,3-8.4,3.7-13q.6-3.5,1.6-6.9c1-3.5,1.5-6.9,1.9-10.5.8-6.5,2-12.9,3.3-19.3.9-4.6,1.6-9.3,2.2-14q.5-2.7,1.6-4.7c1.2-2.4,1.4-4.4,1.5-7.1q.1-1.4.2-2.9c0-1,.1-1.9.2-2.9.1-1.7.3-3.3.4-5,0-.7.1-1.4.2-2.1q.4-1.9,2.4-4.9h2l-1-4h2c0-.6,0-1.2.1-1.8.5-6.2,1.5-12.1,2.9-18.2h-2v-4h3q0-1.2,0-2.4c-.2-9.8,1.1-19,3.1-28.6-1-.7-2-1.3-3-2-1-.7-2-1.3-3-2v-2h4v-6c4.3-2.3,8.3-3.8,13.1-4.9,5-1.3,10-2.7,14.9-4.3,4.6-1.4,8.2-2.2,13-1.8v-2h2v2h3v-3c3.8-1.8,5.9-2.2,10-1,.3-1,.7-2,1-3,3.4-1.8,6.2-2.2,10-2v-2c-.8-.1-1.7-.2-2.6-.4-3.6-.7-6.9-1.6-10.4-2.6.3-1,.7-2,1-3-2.6-.3-5.3-.7-8-1v2c-3.9.4-5.6.3-8.9-2-.7-.7-1.4-1.3-2.1-2v1c-5.5.2-9.8-.3-15-2v-3h-2v2h-2v-4h-2v3c-1.7-.7-3.3-1.3-5-2,1-.7,2-1.3,3-2-3.6.3-7.3.7-11,1v-3h-4v2c-14.6-1.3-32.8-3.4-46-10v-2c-1.9-.4-3.9-.7-5.8-1.1-1.1-.2-2.2-.4-3.3-.6q-3-.6-5.9.7v-2c-2.2-.5-4.4-1-6.6-1.5-1.2-.3-2.4-.6-3.7-.8q-3.7-.8-7.6-.6-3.2,0-5.2-2h-3c-2.1-.4-4.2-.9-6.3-1.4-1.1-.3-2.2-.5-3.4-.8-3.2-.8-6.2-1.8-9.3-2.9v2c-1.3.4-2.6.7-3.9,1.1-.7.2-1.5.4-2.2.6-.6.1-1.2.2-1.8.3-1.9-1.9-1.2-5.4-1.2-7.9,0-1,0-2,0-3.1,0-1.1,0-2.1,0-3.2.1-14.6,1.2-29.2,2.2-43.8,0-1.3.2-2.6.3-4,0-1.3.2-2.6.3-3.9.2-2.5.3-5,.5-7.6,0-1.2.2-2.4.3-3.7.6-9.5,1.1-19.1,1.3-28.6.2-4.9.5-9.5,1.3-14.2.2-2.9.3-5.7.4-8.6.3-6.7.8-13.4,1.6-20.1.9-8.6,1.2-17.2,1.4-25.9.3-16.1,1.8-32,3.4-48,.7-6.9,1.4-13.9,1.9-20.8q.1-1.7.3-3.5c0-2.9-.3-5.3-.9-8.1l4-1c0-.7.1-1.3.2-2,1.1-4.2,2.7-7.9,5.8-11,2.5-.7,4.5-.9,7.1-1,2.4,0,2.5-1,4.9-1.1ZM547,389.8l4,1-4-1ZM644,392.8v1h6v-1h-6ZM898,407.8v5c1-.7,2-1.3,3-2-.3-1-.7-2-1-3h-2ZM879,408.8v2c1,.3,2,.7,3,1-.3-1-.7-2-1-3h-2ZM891,407.8v3q-3-.5-6-1v3c1.6-.3,3.3-.7,5-1v2h-11c-.1,1.2-.3,2.3-.4,3.5,0,.7-.2,1.5-.3,2.2-.2,1.5-.4,3-.5,4.4-.4,3.7-1,7.3-1.7,10.9h2v3c1.3.3,2.6.7,4,1q-.5,1.5-1,3-1.5.5-3,1c-.4,1.7-.7,3.3-1,5,.3.3.7.7,1,1,0,2.2,0,4.4,0,6.6,0,1.2,0,2.4,0,3.6,0,.9,0,1.9,0,2.8h2c0,1.2,0,2.5,0,3.7,0,4.6,0,9.1,0,13.7,0,2,0,3.9,0,5.9,0,2.8,0,5.7,0,8.5,0,.9,0,1.8,0,2.7q-.1,4.4,1.1,8.5c0,1.6,0,3.3,0,4.9,0,1,0,2,0,3,0,2.1,0,4.1,0,6.2,0,1,0,2,0,3q0,1.3,0,2.7c0,2.6.3,5,.6,7.6.7,7.1.7,14.2.8,21.3,0,1.5,0,3,0,4.6,0,3.2,0,6.4.1,9.6,0,4,.1,8,.2,12,.2,17.4.4,34.8.3,52.1h2v3c3-.3,5.9-.7,9-1v3h8c.3-1.3.7-2.6,1-4h6v3l2-1c-.3-1-.7-2-1-3,3,.3,5.9.7,9,1v3c1-.3,2-.7,3-1-.3-1-.7-2-1-3h19c.3,1,.7,2,1,3,1-.3,2-.7,3-1v-2c10.4-.6,20.7-1.1,31-1,3,0,5.8,0,8.7-.5,5-.8,10-.9,15.1-1.1q1.6,0,3.2-.1c2.6-.1,5.3-.2,7.9-.3.3,1,.7,2,1,3h2c.3-1,.7-2,1-3h9v3c1.6.3,3.3.7,5,1v-3h-2v-3h4c.3.7.7,1.3,1,2v-2q1.9.4,4,1c.3.7.7,1.3,1,2-1,.3-2,.7-3,1l8,1c-1-.3-2-.7-3-1v-4c1,.3,2,.7,3,1q2.1-.4,4-1v4c1-.3,2-.7,3-1h-2v-3h21c-.3,1-.7,2-1,3l4-1h-2v-2q1.4,0,2.9,0c8.1,0,16.1-.2,24.1-1v3h3c.3,1,.7,2,1,3h2c.3-.7.7-1.3,1-2h10l-4-1v-3h9v3c1.7.3,3.3.7,5,1v-3h-4v-2q1,0,1.9,0c5.1,0,10-.2,15.1-1,.3.7.7,1.3,1,2v-2c.8,0,1.6.2,2.4.3,6.5.6,12.7.8,19.2,0,3.7-.4,7.5-.6,11.3-.9.7,0,1.4,0,2.1-.1,1.7-.1,3.4-.2,5-.3,0-1.2,0-2.4,0-3.7-.5-21.9-1-43.8-1-65.7q0-1.3,0-2.5c0-8.1.1-16,1.1-24.1-.2-.9-.4-1.8-.6-2.7q-.4-2.3.6-5.3c1.1-3.6.5-4.7-1.1-8,.3-1,.7-2,1-3,0-2.7,0-5.5,0-8.2q0-1.1,0-2.3c0-1.8,0-3.7,0-5.5.7-.3,1.3-.7,2-1-.7-.7-1.3-1.3-2-2v-4h2v-26h-2c.2-.6.4-1.1.6-1.7q.6-2.3,0-4.6c-.5-2.8-.6-5.2-.6-8,0-1,0-2,0-3,0-2.1,0-4.1.1-6.2,0-5.2,0-9.6-2.1-14.5h-2v-3h-13c-.3.7-.7,1.3-1,2h-5c.7.3,1.3.7,2,1-.3.7-.7,1.3-1,2q-3.1.6-6,1c-.3-1-.7-2-1-3v3c-1.5-.1-3-.2-4.4-.4-.8,0-1.6-.1-2.5-.2-.7-.1-1.4-.3-2.1-.4-.3-.7-.7-1.3-1-2h9q-2-1-4-2c-1-.7-2-1.3-3-2v2c-1.3.7-2.6,1.3-4,2,.3.7.7,1.3,1,2-.9-.2-1.8-.4-2.8-.6-2.9-.4-4.5-.4-7.2.6v-3c1,.3,2,.7,3,1v-2c-1.7-.3-3.3-.7-5-1-.3,1.3-.7,2.6-1,4-10.3,0-20.5.2-30.8-.4-.7,0-1.4,0-2.2-.1q-4.9-.3-6.1-1.4h19c.3-.7.7-1.3,1-2h-6c-.3-1-.7-2-1-3v3c-1-.3-2-.7-3-1v-2h-3v3h-13v-4h-5q2,2,4,4c-2-.7-4-1.3-6-2v4c-1.3.3-2.6.7-4,1v-2h2c-.3-1-.7-2-1-3-1.3.3-2.6.7-4,1-.3-.7-.7-1.3-1-2,1-.3,2-.7,3-1h-6c-.3,2-.7,4-1,6-1.8-1.8-2.2-4.6-3-7q-3.1.6-4,3c-.7,0-1.4,0-2.1,0-.9,0-1.8,0-2.8,0-.9,0-1.8,0-2.7,0q-2.6,0-4.4,2.2h12v2h-16v-5c-2.3.3-4.6.7-7,1-.3-1-.7-2-1-3q-1.1.6-2.2,1.1-2.8.9-5.1,0c-.6-.4-1.1-.7-1.7-1.1-.3,1.3-.7,2.6-1,4h12v2q-6.9-.5-14-1v-5q-3-.3-4.7,1.3-1.6,1.7-1.3,4.7c-1.1-.2-2.1-.4-3.2-.6-3.2-.4-4.8-.5-7.8.6q-.5-1.5-1-3v2c-6.1,0-11.9,0-18-1q-2.3.4-4,1v-2c1.3-.7,2.6-1.3,4-2h-2v-3h-9v2c-1-.3-2-.7-3-1v-1c-2.3-.3-4.6-.7-7-1v3c-.8-.3-1.5-.7-2.3-1q-2.7-1.2-5.7-1v2h-7q-.5-1.5-1-3v2c-1.3-.3-2.6-.7-4-1-.3,1-.7,2-1,3,4.3.8,7.7,1.2,12,0-.3.7-.7,1.3-1,2-.9,0-1.8,0-2.8,0-1.2,0-2.4,0-3.6,0q-1.8,0-3.6,0-3-.1-5,1.1-.5-1-1-2c-2.3.3-4.6.7-7,1q-.5-1.5-1-3v3h-11q-.5-1-1-2v2h-4v-3h10v-1c-3.3-.3-6.6-.7-10-1q-.5-1.5-1-3c-1,.3-2,.7-3,1q.5,2.8,2,5h-15c.3-1.6.7-3.3,1-5-.7-.3-1.3-.7-2-1ZM982,410.8c-.3,1.6-.7,3.3-1,5,1.6.2,3.2.4,4.8.6q1.3.2,2.7.3c2.5.1,4.2-.1,6.6-.9v-4c-2.3-.3-4.6-.7-7-1v2h-4v-2h-2ZM999,412.8v3c.7-.3,1.3-.7,2-1-.7-.7-1.3-1.3-2-2ZM1004,414.8q2,1,4,2c.7-.7,1.3-1.3,2-2h-6ZM611,416.8c-.3.7-.7,1.3-1,2h2c-.3-.7-.7-1.3-1-2ZM1115,416.8q-1,1.5-2,3h6c-1.3-1-2.6-2-4-3ZM1157,416.8c-.3.7-.7,1.3-1,2h2c-.3-.7-.7-1.3-1-2ZM1110,417.8c-.3.7-.7,1.3-1,2,1-.3,2-.7,3-1-.7-.3-1.3-.7-2-1ZM760,449.8l1,3-1-3ZM500,476.8v8h1v-8h-1ZM500,487.8l-1,4c.7-.3,1.3-.7,2-1-.3-1-.7-2-1-3ZM499,493.8l1,4-1-4ZM498,511.8l1,2-1-2ZM759,554.8l1,3-1-3ZM1147,625.8v3c.7-.7,1.3-1.3,2-2-.7-.3-1.3-.7-2-1ZM1091,626.8c-.3,1-.7,2-1,3l2,1c-.3-1.3-.7-2.6-1-4ZM1140,625.8c-.7.7-1.3,1.3-2,2l4,1c-.3-1-.7-2-1-3h-1ZM1076,627.8v3h3c-1-1-2-2-3-3ZM1087,627.8c-1.7.3-3.3.7-5,1v2c2-.3,4-.7,6-1-.3-.7-.7-1.3-1-2ZM1031,629.8c-.3.7-.7,1.3-1,2,1-.3,2-.7,3-1-.7-.3-1.3-.7-2-1ZM745,630.8c-.3,1.3-.7,2.6-1,4q1,.5,2,1v-5h-1ZM1140,630.8l4,1-4-1ZM971,631.8v1h5v-1h-5ZM982,631.8c.3.7.7,1.3,1,2h2v-2h-3ZM947,632.8l-2,2c1.6-.3,3.3-.7,5-1-1-.3-2-.7-3-1ZM744,637.8v5h1v-5h-1ZM743,647.8l1,2-1-2ZM525,653.8c.3.7.7,1.3,1,2q3,.7,6,1v-2c-2.3-.3-4.6-.7-7-1ZM533,655.8c.3.7.7,1.3,1,2h6c-2.6-1.5-3.9-2-7-2ZM742,656.8l1,2-1-2ZM542,657.8v1c4.6,1,9.2,2,14,3,.3-.7.7-1.3,1-2-5.1-1.3-9.7-2.3-15-2ZM558,660.8c.3.7.7,1.3,1,2,.7-.3,1.3-.7,2-1-1-.3-2-.7-3-1ZM741,666.8v6h1c.3-2,.7-4,1-6h-2ZM615,672.8v1h5v-1h-5ZM638,686.8v2h4l-1-2h-3ZM655,689.8l1,2,1-2h-2ZM675.8,702.1c-1.3.5-2.7.9-4,1.4-1.2.4-2.5.9-3.7,1.3-1.6.5-3.2,1-4.8,1.6-3.1,1-6.1,2.2-9.2,3.5-4.6,1.9-9.1,3-14,3.9v2q-1,.2-2.1.3c-4.7,1.1-9.2,2.9-13.8,4.6q-3.2,1.1-6.2,1.1v2c-1.7.3-3.3.7-5,1q0,1.4-.1,2.7-1.1,17.6-4.9,23.3c-.4,2.4-.8,4.7-1.1,7.1,0,.7-.2,1.3-.3,2-.5,3.7-.9,7.4-1.2,11-.3,2.8-.7,5.1-1.4,7.8-.7,3.4-1.3,6.7-2,10.1q-.3,1.3-.5,2.7c-1,5.4-1.8,10.8-2.2,16.2q-.2,1.9-1.2,2.9c0,2.2,0,4.4,0,6.6,0,1.2,0,2.4,0,3.6,0,.9,0,1.9,0,2.8q-1,.5-2,1c-.5,2.5-.8,4.9-1.1,7.4q-.8,7.3-1.9,10.6c-.3,2.5-.6,5-.9,7.5-.8,6.7-2.1,13.1-4.1,19.5,1,.7,2,1.3,3,2,.4,2.7.1,5.2,0,8-2-.3-4-.7-6-1-.3.7-.6,1.4-.9,2.2-1,2.6-2.1,5.2-3.1,7.8h-3c-.7,1.3-1.3,2.6-2,4h-3v5h-3v3h-2c-.2.6-.5,1.2-.8,1.8-1.4,2.6-3.1,4.2-5.2,6.2q-3.6,3.5-5,8c-1,.3-2,.7-3,1v2h-2q-1.7,1.9-3.4,4.2c-2.4,3.2-4.8,6-7.6,8.8-.6.6-1.2,1.2-1.8,1.8-.4.4-.8.8-1.2,1.2-.3-.7-.7-1.3-1-2-.2,1.1-.5,2.1-.7,3.2-1.4,4.9-4.5,7.5-8.6,10.4q-2,1.3-2.8,4.4-1.6,1.4-3.4,2.9c-3.1,2.5-4.2,4.4-5.6,8.1q-1.9,1.1-4,2-2.2,1.4-4,3v3c-2.3.8-4.6,1.4-7,2-.1.8-.2,1.6-.3,2.4q-.7,2.6-3.7,4.6v3c-1.3.3-2.6.7-4,1v4h-2v2c-1-.3-2-.7-3-1-.2.6-.5,1.2-.8,1.9q-1.2,2.1-3.3,3.1c-.6.4-1.3.7-1.9,1.1q-.8,2.6-1,5c-1-.3-2-.7-3-1-.1.6-.2,1.3-.3,1.9-.2.7-.5,1.4-.7,2.1-1,.3-2,.7-3,1q-.7,2-1,4c-1.3.3-2.6.7-4,1,.3,1.3.7,2.6,1,4-1-.3-2-.7-3-1-3.8,3.6-7.3,7.3-10.5,11.6-3.1,4.1-6.5,7.2-10.5,10.4.3,1,.7,2,1,3q-1.2.4-2.4.8c-3.1,1.5-3.2,2.2-4.6,5.2-1.7,1.7-3.3,3.3-5,5q-4.8,5-7,11c-1,.3-2,.7-3,1,0,4.1,0,8.2-.1,12.3,0,1.4,0,2.8,0,4.2q-.2,11.4,2.2,22.5c3.5,2.3,6.8,3,10.8,3.9q1.1.3,2.3.5c5.6,1.3,11.3,2.5,17,3.7,3,.6,6,1.3,9,2,10.4,2.4,20.7,4.6,31.2,6.2,4.8.8,9.5,1.8,14.2,3,5.3,1.4,10.7,2.3,16.1,3.1q2.3.4,3.3,1.4c2.3.4,4.7.7,7,1,1.3.3,2.7.6,4,1,4.1,1,7.8,1.1,12,1,.3.7.7,1.3,1,2q2.8.9,6.2,1.5c1.3.3,2.5.5,3.8.8,3.5.7,7.1,1.2,10.7,1.7,3.8.6,7.4,1.3,11.1,2.4,6.2,2,12.6,3,19,4.2,3.7.7,7.4,1.3,11,2q1,.2,2.1.4,4.8.9,7.1,2c1.4,0,2.8,0,4.1,0q1.9,0,3.9,0v2c2.7,1.4,5,1.1,8,1,.4-5,.9-10,1.3-14.9.1-1.7.3-3.4.4-5.1.9-9.9,1.4-19.6,1.2-29.5q.1-8.6,2-12.5c0-1.9-.2-3.8-.4-5.6-.1-1-.2-2-.3-3,0-.8-.2-1.5-.3-2.3.7-.3,1.3-.7,2-1h-2c.2-1,.3-2,.5-3,.7-5,.9-10,1.1-15q.3-5.7.9-8c.5-2.1.6-4,.7-6.1,0-.8,0-1.6,0-2.4,0-.8,0-1.7,0-2.6q0-1.3,0-2.7c0-3.7.1-7.5.2-11.2,0-2.7.1-5.5.2-8.2,0-.9,0-1.7,0-2.6q.1-6,1.2-8.2-.4-2.1-1-4c.7-.3,1.3-.7,2-1-.3-.7-.7-1.3-1-2-.1-3.4,0-5.8,1-9,0-1.8,0-3.5,0-5.3,0-6,.3-11.9.9-17.9q.3-2.8-.9-4.8c.7-.3,1.3-.7,2-1,0-.9,0-1.8,0-2.8,0-6.4,0-12.7.5-19.1.8-11,.6-22.1.5-33.1.7-.3,1.3-.7,2-1,0-1.2,0-2.4,0-3.6-.1-8.8,0-17.4,1-26.2,1.1-10.5,1.4-21,1.6-31.6q.7-32.9,3.1-47.1c.4-2.8.1-4.8-.6-7.6h2c0-1.3.1-2.5.2-3.8.5-9.7,1-19.4,1.6-29.1.1-2,.2-4.1.2-6.1.2-1.6.4-3.1.6-4.7.4-3.6.3-6.2-.8-9.6q-.9-3.7.3-6.3c.6-.8,1.2-1.6,1.8-2.4.4-1.1.9-2.1,1.3-3.2q1.7-2.8,4.4-4c3.5-.8,6-.8,9.5-.4,3.8.4,7.3.6,11.1.1,7.7-.9,15.5-.9,23.3-1.1,1.6,0,3.2,0,4.8-.1,3.9-.1,7.7-.2,11.6-.3v-3c-7-2.1-14-3.7-21.3-4.9-4.3-.8-8.5-1.9-12.7-3.1-2-.4-4.1-.7-6.1-1.1q-5.8-.9-8.3-1.6c-3.6-.4-6.5.7-9.8,1.9ZM1042,705.8c-.3.7-.7,1.3-1,2h2c-.3-.7-.7-1.3-1-2ZM1056,705.8l1,2-1-2ZM1054,708.8v2l2-1-2-1ZM1675,739.8c-.9.1-1.9.3-2.9.4-.7.2-1.4.4-2.1.6-.3.7-.7,1.3-1,2l-2-1c-.3,1-.7,2-1,3-.3-1-.7-2-1-3-.7.7-1.3,1.3-2,2,.3.3.7.7,1,1-1,.3-2,.7-3,1v-2h-2c-.3.7-.7,1.3-1,2h-3c0,.6,0,1.2-.1,1.8-1.3,3.3-3.7,3.7-6.9,5.2-4.7,3.4-8.6,7.6-12.6,11.8q-2.4,2.2-5.4,3.2v2q-.9.4-1.8.8c-2.2,1.2-3.9,2.5-5.8,4.2-2.1,1.9-4.1,3.4-6.4,5v2c-.6.2-1.2.5-1.9.8q-2.3,1.1-3.1,3.2-1,2-3,2.9c-2.7,1.5-3.1,3.2-4,6.1h-3c-.3,1-.7,2-1,3-1.3,1.3-2.7,2.7-4,4-.3,1-.7,2-1,3l-2,1v5h-2c-.3.8-.5,1.7-.8,2.6-1.7,4.8-3.7,9.4-5.9,14.1-1.3,3.2-1.4,5-1.3,8.4-.3.6-.7,1.2-1,1.9-1.4,3-1.1,5.8-1,9.1l-2,1c-.4,2.3-.7,4.7-1,7-.5,2.6-1,5.2-1.5,7.8-.1.7-.3,1.3-.4,2q-1,4.9-2.1,7.2c.3,1,.7,2,1,3h-2c.3,1,.7,2,1,3q-.9,2.1-2,4c0,1.6,0,3.1,0,4.7,0,3.5-.5,6.8-1.1,10.3-.3,2.8-.5,5.6-.7,8.4q-.3,2.6-.8,5.1c-.5,3.1-.3,5.8,0,9,.4,4.9.6,9.8.6,14.8,0,4.2,0,8.3.5,12.5.9,9.3.4,18.4-.1,27.7q-.9,9.9.6,19.6c.4,2.7.7,5.3,1,8h-2c.1,1.2.3,2.3.4,3.5.5,4.2,1,8.3,1.6,12.5h-2c0,.6.1,1.2.2,1.8.6,6.1,1,12.1,1.3,18.2.4,8,.8,16,1.3,24,.4,8.4.2,15.9-1.9,24.1-.2.9-.4,1.8-.7,2.7-2.6,10.3-6.6,20-12.3,29.1-.7,1.3-1.5,2.5-2.2,3.8-.6,1.1-1.2,2.1-1.8,3.2l-2-1c-.2.9-.5,1.8-.8,2.7q-1.2,3.3-3.3,5.9c-2.1,2.6-2.6,4.2-2.9,7.4-1,.3-2,.7-3,1-.4,1.3-.7,2.7-1,4-.4.4-.9.8-1.3,1.3-2.2,2.2-3.7,4.7-5.5,7.3-2.7,4-5.3,8-8.1,12-.5.8-1.1,1.6-1.6,2.4q-1.5,2.1-3.2,3.6-1.6,1.5-2.4,4.4c-1.5,1.3-3,2.6-4.5,3.8q-1.6,1.2-3.1,2.8-1.4,1.4-3.6,2.9-.9.7-1.8,1.4v2q-.8.3-1.7.5c-5.6,1.8-11,4-16.3,6.5v2c-.6.2-1.2.3-1.8.5-.8.2-1.6.5-2.4.7-.8.2-1.6.4-2.4.7-3,1.5-4.3,3.5-6.4,6.1-1.8,1.5-3.7,2.9-5.6,4.2q-1.4,1-2.9,2.1-2.6,1.7-5.6,2.7v4h2v6h-2v-5h-1q-.4,6.3,2,12c-1,.3-2,.7-3,1h3q-.3,1.4-.6,2.8c-2.5,12.3-3.6,24.5-4.6,37-.2,2.7-.5,5.4-.7,8.1,0,.8-.1,1.6-.2,2.4-.4,4-1,7.4-2.4,11.1q-1.7,3.6-1.4,7.7h-3c0,4.2.2,7.9,1,12,0,2,0,4,0,6,2.6.9,3.6,1.1,6.2,0,.6-.4,1.2-.7,1.8-1.1l1,1c1.7.4,3.3.7,5,1q2.3-2.8,2-6c.6.2,1.2.5,1.8.7.7.1,1.4.2,2.2.3q1.8-1.4,3-3c.3.7.7,1.3,1,2,1-.3,2-.7,3-1q.2-1,.3-1.9c.2-.7.5-1.4.7-2.1q3.1-1.2,6-2v-2q9.5-2.6,14-1v-5h2c.3.7.7,1.3,1,2,.7-1,1.3-2,2-3h3q2.5-1.3,5-3c.7-.5,1.4-.9,2.2-1.4q1.9-1.5,2.8-3.6c1.3-2.4,2.5-2.9,5-3.9.3.7.7,1.3,1,2,1.3-1,2.6-2,4-3h-2l3-3c1,.3,2,.7,3,1,.3-1,.7-2,1-3,.7.3,1.3.7,2,1,2.3-2.2,4.2-4.5,6-7,.7.3,1.3.7,2,1,0-.6.2-1.2.2-1.8,1-2.8,2.2-3.7,4.8-5.2h3l1-5h2v-2h2q1.6-1.6,3.3-3.7c2.1-2.5,4.2-4.9,6.6-7.2q2.3-1.9,2.1-4.1h2v-2c1-.3,2-.7,3-1q.7-2,1-4h2c.2-.5.5-1,.7-1.6,1.5-3.2,3-6,5.2-8.8,3-3.8,5.3-8.1,7.1-12.6-.3-.7-.7-1.3-1-2h2c.3-.9.5-1.7.8-2.6,2.7-8.4,5.8-16.4,9.5-24.4.3-.7.7-1.4,1-2.2q.4-1,.9-1.9c.8-1.9,1.3-3.8,1.8-5.9h2q.2-.9.4-1.9c2-9,5.3-17.5,8.7-26.1q3.5-8.3,4.9-17.1c1-.3,2-.7,3-1-.3-1-.7-2-1-3q.9-3.2,2-6h2c.8-3.4,1.1-5.7,0-9,1-.3,2-.7,3-1,1.2-4.4.9-6.9-1.1-11-1.7-3.8-2.8-8-3.9-12h2v-2h-3c.2-1,.3-2,.5-3.1.5-4,.5-7.9.5-11.9,0-5.6.1-11.2.5-16.8.4-5.7.5-11.4.5-17.1,0-4.7.4-9.4.7-14.1.3-4.4.4-8.7.4-13,1.3-.3,2.6-.7,4-1-.3-1-.7-2-1-3v2h-2c0-.9.2-1.8.3-2.8.1-1.2.2-2.4.3-3.6.1-1.2.2-2.4.3-3.6q.4-3-.9-5l2-1v-3c.3-2,.6-4,1-6l-2-1c-1-3.1-1.1-5.4-1.1-8.7,0-1,0-2,0-3q0-1.1,0-2.3h-2c0-3,0-5.9-.1-8.9,0-.8,0-1.7,0-2.6,0-.8,0-1.6,0-2.4,0-.7,0-1.5,0-2.3q.2-1.9,2.2-3.9h-2q-.3-1.1-.6-2.3c-1.2-4.8-2.3-9.5-3.9-14.1-7.1-21.2-7.7-46,2.3-66.3.4-.8.8-1.5,1.2-2.3.4-1,.9-2,1.3-3.1,2.3-3.9,5.1-7.3,8-10.8q1.8-2,1.6-4.2h2c4-5.7,4.8-10.1,4-17-.3-.7-.7-1.3-1-2,1-.3,2-.7,3-1v-2c-.7-.3-1.3-.7-2-1,1-8.2,2-15,8-21,.3-.6.5-1.2.8-1.8,1.6-3,3.8-4.9,6.2-7.2.5-.5.9-1,1.4-1.6,6.7-7.2,20.2-19.1,30.3-19.6.7,0,1.5,0,2.2.1.3-.7.7-1.3,1-2q3-.4,6.8-.7c1.2,0,2.5-.2,3.7-.3,3.1,0,5.6,0,8.5.9.7,1,1.3,2,2,3,2.4.7,4.5,1,7,1,2.3.3,4.7.7,7,1v2c.9.2,1.8.5,2.8.8,3.4,1.3,4.7,2.7,7.2,5.2h4c.7,1,1.3,2,2,3h2c.7,1.6,1.3,3.3,2,5h2q.3.8.5,1.7c1.3,4,2.6,7.7,4.5,11.4,4.6,8.9,5.1,17.2,2.8,26.9-2.6,8-7.7,14.3-12.8,20.9-5.2,6.9-6.3,11.4-5.9,19.8.2,9.1,0,16-6.6,22.8-2.4,2.2-4.9,4.4-7.5,6.4l-2-1c-1.3.9-2.6,1.9-3.9,2.8-.7.5-1.4,1-2.2,1.6-2.4,2-3.8,3.6-4.3,6.8-.7,2.9-1.6,4.3-3.2,6.7-2.6,4-2.9,6.4-2.4,11.1,2.1,1.3,3.5,2,5.9,1.9,3-1.4,4.8-3.6,7.1-5.9,1.3-.9,2.5-1.8,3.8-2.7,1.1-.8,2.1-1.5,3.2-2.3v-2c.5-.2,1.1-.5,1.6-.7q2.6-1.3,5-3.6c3.4-2.9,7.1-4.7,11.2-6.6q13.5-6.2,23.2-17.1-.1-2.1-1-4c-.7-.3-1.3-.7-2-1,2.2,0,3.9.4,6,1,2.8-3.2,4.5-6,6-10,1-2,2-4,3-6-1.7.3-3.3.7-5,1,.3-1.6.7-3.3,1-5h2c.3.7.7,1.3,1,2,.3-1,.7-2,1-3,.7-.3,1.3-.7,2-1-.3-1-.7-2-1-3,.7-.7,1.3-1.3,2-2-1-.3-2-.7-3-1,.3-.7.7-1.3,1-2,1,.7,2,1.3,3,2,0-2,0-4,0-6-.3-.3-.7-.7-1-1-.3-5.5-.3-11.1.6-16.6.5-4.1.1-7.9-.3-12-.5-6.1-.3-12.3-.3-18.4h-2c.1-1.2.3-2.4.4-3.6,0-8.8-6-17.1-10.4-24.4-.9-1.6-1.8-3.1-2.6-4.7-.4-.8-.9-1.5-1.3-2.3-.7-1.3-1.4-2.6-2.1-4h-2q-.3-1-.7-1.9-1.2-2.3-3.9-2.8-1.2-.1-2.4-.2c-.3-1.3-.7-2.6-1-4-.8-.1-1.6-.2-2.4-.3q-2.6-.7-4.6-3.7c-4.1-2.4-8.1-3.7-12.8-4.8-6.9-1.7-13.6-3.9-20.3-6.2-.7-.2-1.4-.5-2.2-.7-.6-.2-1.3-.4-1.9-.7-3.5-1.1-6.5-1.7-10.2-1.7q-1.2,0-2.5,0c-.8,0-1.7,0-2.5,0-.8,0-1.7,0-2.5,0-4.8,0-9.4.3-14.2,1.1ZM1072,743.8c1,.3,2,.7,3,1q-2,3-4.5,3.5c-1,0-1.9.1-2.9.2-1,0-1.9.1-2.9.2-1.9,0-3.8.1-5.6.1v2q-1.4,0-2.7.2c-6,.4-12,.8-18,1.6-1.7.2-3.5.3-5.2.5q-1.5.1-3,.2c-.9,0-1.9.1-2.8.2-.7.1-1.4.3-2.2.4-.3.7-.7,1.3-1,2q-6.6.1-10-1v2c-2-.3-4-.7-6-1v2c-.6-.2-1.2-.3-1.9-.5-3.1-.4-5.1-.5-8.1.5-2.9,3.2-5,6.4-7.2,10.1q-1.8,2.9-3.8,3.9v3h-2q-1.5,2.1-3.1,4.9c-3.1,5-6.5,9.5-10.3,13.9-1.6,2.1-2.2,3.6-2.6,6.2h-2q-1.6,1.7-3.1,3.9c-.5.7-1.1,1.4-1.6,2.2q-1.4,1.8-1.2,3.9h-2c-1,1.6-2,3.3-3,5-.5.5-1,1.1-1.5,1.6-3.6,4-4.9,6.7-4.7,12.1.2,2.2.5,4.3.7,6.5.2,2.1.5,4.2.7,6.4q.2,1.7.4,3.5c1.6,17.5,1.6,35.2,1.9,52.7,0,3.1.1,6.2.2,9.3q0,1.4,0,2.9c0,.9,0,1.7,0,2.6,0,.8,0,1.5,0,2.3.2,2.2.4,4.1,1.2,6.1q2.2,1.2,5,2c5.2,1.7,10,3.8,15,6,1.9.8,3.8,1.7,5.7,2.5,1.9.9,3.9,1.7,5.8,2.6,1,.4,2,.9,3,1.3.9.4,1.9.9,2.9,1.3.9.4,1.7.8,2.6,1.2q2,1.1,3,3.1c2.7,1.1,5.5,2,8.3,2.9,2.7,1.1,3.7,2.1,5.7,4.1,2,.5,4,1,6,1.4q2,.6,4.7,2.4c5,3.3,12.2,7.2,18.3,7.2v2c.7.3,1.3.5,2,.8,4.6,1.8,8.8,3.6,13,6.2,1.2.5,2.5,1.1,3.7,1.6q3.3,1.4,5.3,3.4c2,.4,4,.7,6,1v-3h3v-3h2c.7-1,1.3-2,2-3h3v-4h4v-3h5v-5c.5-.2,1.1-.5,1.6-.7,3-1.6,5.5-3.6,8.1-5.8,1-.8,2-1.6,3-2.4.7-.7,1.5-1.4,2.3-2.1v-2h2c.3-.7.7-1.3,1-2,.6-.3,1.2-.5,1.8-.8,3-1.6,4.9-3.8,7.2-6.2,2.9-2.5,5.5-4.5,9-6v-3c1.3-.3,2.6-.7,4-1v-3c1-.2,1.9-.5,2.9-.8q1.5-.6,3.1-1.2.7-2,1-4c1.3-.7,2.7-1.4,4-2,1.3-1,2.5-2,3.8-3q.9-.8,1.9-1.6,1.6-1.3,1.4-3.4,1-.4,1.9-.8,2.4-1.1,3.1-4.2h4c.3-2.3.7-4.6,1-7h-1c0-.7,0-1.3-.1-2-.5-6-1.3-11.9-2.4-17.8q-.4-2.2-.4-4.2l2-1c-1-.3-2-.7-3-1,.3-4.3.7-8.6,1-13h-2c0-.6,0-1.1,0-1.7.2-8.6-.7-17.1-1.6-25.7-.3-2.5-.5-5.1-.8-7.6-.2-1.6-.3-3.3-.5-4.9,0-.8-.1-1.5-.2-2.3-.3-3-.6-5.2-2.4-7.7q-1.5-1.2-3.6-1c-.3-1-.7-2-1-3q-3.2-2.3-7-3c-.3-1-.7-2-1-3q-2-.7-4-1v-2c-1.7-1.4-3.3-2.7-5-4-.3-.7-.7-1.3-1-2h-3v-2h-3v-3c-1-.3-2-.7-3-1-.3-1-.7-2-1-3h-3c-.3-1-.7-2-1-3l-2,1c-.3-1-.7-2-1-3h-3v-2h-2c-.3-1.3-.7-2.6-1-4h-2v-2c-.9-.4-1.9-.9-2.9-1.3q-3.1-1.7-5.1-4.7h-4c-.3-1.3-.7-2.6-1-4h-2v-2h-3c-.3-1-.7-2-1-3-.3.7-.7,1.3-1,2h-2l-1-3h-4ZM607,745.8l1,2-1-2ZM598,748.8l1,2-1-2ZM605,752.8c-.3,3-.7,5.9-1,9,1.9-3.8,2.2-5,2-9h-1ZM1112,761.8l1,2-1-2ZM602,770.8v5h1v-5h-1ZM1150,789.8l2,3v-3h-2ZM1585,810.8l1,2-1-2ZM1582,816.8v2l-2,1,2,3c.3-2,.7-4,1-6h-1ZM1750,819.8l1,2-1-2ZM1809,830.8c-.3,1.3-.7,2.6-1,4l2,1v-5h-1ZM1153,841.8l1,2-1-2ZM1574,844.8l1,2-1-2ZM1156,872.8l1,2-1-2ZM1533,876.8l1,2-1-2ZM1318,886.8l1,3-1-3ZM406,887.8l-1,2h2l-1-2ZM1164,889.8l1,2-1-2ZM409,909.8c.3,1,.7,2,1,3,.3-1,.7-2,1-3h-2ZM367,939.8c-.3,1-.7,2-1,3h2c-.3-1-.7-2-1-3ZM341,963.8c.3.7.7,1.3,1,2,.3-.7.7-1.3,1-2h-2ZM1625,964.8l1,2-1-2ZM338,966.8l1,3-1-3ZM1325,970.8v2c.7-.3,1.3-.7,2-1-.7-.3-1.3-.7-2-1ZM1631,974.8l1,2-1-2ZM414,977.8l1,2-1-2ZM325,979.8l-1,4c.7-.3,1.3-.7,2-1-.3-1-.7-2-1-3ZM662,979.8c-.3,1-.7,2-1,3h2c-.3-1-.7-2-1-3ZM314,991.8v3-3ZM311,993.8c-.7,1.7-1.3,3.3-2,5,1.3-1,2.6-2,4-3-.7-.7-1.3-1.3-2-2ZM660,996.8l1,2-1-2ZM307,998.8l1,2-1-2ZM1626,1002.8l1,3-1-3ZM459,1003.8v2h-2c.3,1,.7,2,1,3v-2h2c-.3-1-.7-2-1-3ZM1349,1006.8l1,2-1-2ZM1353,1011.8v2c1-.3,2-.7,3-1-1-.3-2-.7-3-1ZM389,1013.8c.3.7.7,1.3,1,2,.3-.7.7-1.3,1-2h-2ZM386,1018.8l1,3-1-3ZM659,1021.8l1,2-1-2ZM660,1026.8v2h3c-.1,2-.2,4-.4,5.9,0,1.1-.1,2.2-.2,3.3-.1.9-.3,1.8-.4,2.7q-1,.5-2,1h2v11c-1,.3-2,.7-3,1,.3.3.7.7,1,1,.2,2,.4,4,.6,6.1,0,1.1.2,2.2.3,3.3,0,.9.1,1.7.2,2.6q-1,.5-2,1c0,.6,0,1.2,0,1.9.1,14.1-.1,28.2-.7,42.3q0,1.7-.1,3.4c0,1,0,2-.1,3q-.2,2.4,1,4.4h-2v2h-2c.3-2.3.7-4.6,1-7-.7-.3-1.3-.7-2-1v9h4v2q-2,.5-4,1v6q2.2-2.7,2-5h2c-.2.8-.3,1.7-.5,2.5-.5,3.7-.6,7.1-.6,10.8,0,1.2,0,2.5,0,3.8,0,.9,0,1.9,0,2.9.7,0,1.4.2,2.1.3,6,.9,11.9,2.2,17.8,3.7,6.4,1.7,12.6,2.8,19.1,3.5,2.9.5,5.2,1.4,8,2.5,2.2.4,4.5.8,6.7,1.1q6.1.8,8.3,1.9c1.9.2,3.7.4,5.6.6,1,0,2,.2,3,.3.8,0,1.5.1,2.3.2v2c1.1,0,2.3.2,3.4.2,5.6.6,10.9,1.9,16.4,3.3,3.3.8,6.4,1.5,9.8,2,3.6.5,6.9,1.5,10.4,2.5,3.9.8,7.8,1.5,11.7,2.2q3.3.8,6.3,2.8l-2-5h-2c-.3-.6-.5-1.2-.8-1.8-1.2-2.3-2.5-4.3-4.2-6.2h-2c-.2-.7-.5-1.4-.8-2.2-1.4-3.1-3-5.3-5.2-7.8h-2c-.3-1-.7-2-1-3h-2q-.4-1.1-.8-2.3c-1.1-2.6-2-4-4.2-5.7h-2c-.1-.6-.2-1.2-.3-1.9q-.6-2.5-3.7-4.1c-.3-1-.7-2-1-3q-3.4-3.8-8-6v-4c-.6-.2-1.2-.5-1.9-.8-2.6-1.5-2.9-2.6-4.1-5.2-1.3-1.4-2.6-2.7-4-4-.3-.7-.7-1.3-1-2h-2q0-.8-.2-1.7c-1.1-3.3-3.4-4.9-5.8-7.3-1-1.7-2-3.3-3-5q-2.5-2.8-5-5h-2q-.2-1-.3-1.9c-.2-.7-.5-1.4-.7-2.1-1-.3-2-.7-3-1-.3-.7-.6-1.5-.9-2.2-1.4-3.4-3.5-5.2-6.1-7.8-.7-1.3-1.4-2.7-2-4-1-.7-2-1.3-3-2q-.5-1-1-2.1-.9-2.3-4-2.9c-1-1.6-2-3.3-3-5q-1-.5-2-1c-.1-.7-.3-1.3-.4-2-.2-.7-.4-1.3-.6-2-1-.3-2-.7-3-1-.5-1.1-.9-2.2-1.4-3.4-1.6-3.7-2.4-4.5-5.6-6.6q-1.2-2.2-2-4h-3c-.1-.6-.2-1.3-.3-1.9-.2-.7-.5-1.4-.7-2.1-1-.3-2-.7-3-1-.3-.7-.5-1.4-.8-2.1-1.6-3.9-4-7.1-7.2-9.9h-3ZM1369,1026.8l2,2v-2h-2ZM656,1028.8l1,3-1-3ZM432,1033.8c.3.7.7,1.3,1,2,.3-.7.7-1.3,1-2h-2ZM1381,1034.8l1,2-1-2ZM1625,1037.8l1,2-1-2ZM429,1037.8c-.7.7-1.3,1.3-2,2h3c-.3-.7-.7-1.3-1-2ZM426,1039.8c-1.7,2-3.3,4-5,6,.3.7.7,1.3,1,2,1.7-1.7,3.3-3.3,5-5-.3-1-.7-2-1-3ZM655,1040.8l1,3-1-3ZM657,1060.8l1,2-1-2ZM1623,1061.8l1,3-1-3ZM1414,1063.8l1,2-1-2ZM656,1070.8l1,2-1-2ZM657,1078.8l1,2-1-2ZM1623,1079.8c-.3.7-.7,1.3-1,2h2c-.3-.7-.7-1.3-1-2ZM1623,1083.8v3l2-1c-.7-.7-1.3-1.3-2-2ZM1624,1089.8v3h2v-3h-2ZM1503,1094.8c.3.7.7,1.3,1,2,.3-.7.7-1.3,1-2h-2ZM317,1095.8l1,3-1-3ZM439,1106.8c2.5,2.5,3.7,2.4,7.1,2.6.9,0,1.8.1,2.8.2.7,0,1.4,0,2.1.1-4-2.2-7.4-2.5-12-3ZM456,1109.8c.3.7.7,1.3,1,2,1.3-.3,2.6-.7,4-1-1.7-.3-3.3-.7-5-1ZM464,1111.8v2h7v-1c-2.3-.3-4.6-.7-7-1ZM476,1114.8q2,1,4,2c.7-.7,1.3-1.3,2-2h-6ZM485,1115.8c-.3.7-.7,1.3-1,2,1-.3,2-.7,3-1-.7-.3-1.3-.7-2-1ZM492,1117.8l1,2-1-2ZM521,1123.8l1,2-1-2ZM535,1126.8c.3.7.7,1.3,1,2h2v-2h-3ZM583,1136.8c.7.7,1.3,1.3,2,2v-2h-2ZM654,1137.8c.3,1,.7,2,1,3,.3-1,.7-2,1-3h-2ZM628,1145.8l1,2-1-2ZM654,1151.8v2h2v-2h-2ZM659,1152.8c-.3.7-.7,1.3-1,2q3,.5,6,1v-2c-1.6-.3-3.3-.7-5-1ZM669,1155.8l4,1-4-1ZM677,1156.8v2h3v-2h-3ZM682,1157.8v2c3,.3,5.9.7,9,1-3.2-2.1-5.3-2.5-9-3ZM694,1160.8c2.9,1.9,4.4,2.5,7.7,3.1q1.2.3,2.4.5c.6.1,1.2.2,1.9.4v-2c-4.2-1.6-7.5-2.2-12-2ZM734,1168.8v2h5q-2.4-1.4-5-2ZM968,1168.8c.7.7,1.3,1.3,2,2v-2h-2ZM740,1170.8c7.3,4,15.7,5.5,24,5v-1c-2.7-.7-5.4-1.3-8.1-2q-1.1-.3-2.3-.6c-4.7-1.1-8.8-1.6-13.7-1.4ZM937,1171.8c.7.7,1.3,1.3,2,2v-2h-2ZM764,1175.8l4,1-4-1ZM772,1177.8l4,1-4-1ZM421,1178.8l1,2-1-2ZM786,1180.8q2.7,2.2,5,2v-2h-5ZM334,1186.8c.3,1.7.7,3.3,1,5,.7-.3,1.3-.7,2-1l-2-4h-1ZM1378,1198.8c-.8.3-1.5.6-2.3.9-5,1.4-9.9,1.8-15.1,2.2q-1.5.1-3,.3c-4.4.4-8.7.7-13.1.6q-3.4-.2-6.5,1c-2.3.2-4.5.4-6.8.5-3.4.2-6.8.4-10.2,1-3.5.6-6.9.7-10.5.9-8.2.4-16.3,1.4-24.5,2.6-5.8.8-11.3,1.2-17.1,1v2c-.6,0-1.2-.2-1.9-.3-7.1-.9-13.5-.3-20.6.8-4.2.6-8.3.6-12.5.5l-1,1c-1.5,0-3,0-4.6,0-.8,0-1.7,0-2.5,0-.6,0-1.3,0-1.9,0v2c-.6,0-1.1,0-1.7,0-5.2,0-10.2.3-15.3,1-.3-.7-.7-1.3-1-2v2h-7c-.3-1-.7-2-1-3v4c-1.1,0-2.1,0-3.2,0-3.1,0-5.8.3-8.8,1.1v-2h-2v2c-1.5,0-2.9,0-4.4,0-.8,0-1.6,0-2.5,0q-2.2,0-4.2-1.1v2h-5v-2q-3.8,1-7,3c-3.4.1-5.8,0-9-1v2c-1.2,0-2.4,0-3.6-.1-6.5,0-12.9,1.1-19.4,2.1-.3-.7-.7-1.3-1-2v2h-2v-4h-2c-.3.7-.7,1.3-1,2h-3v2q-7.9,1.5-16,3c-.3-.7-.7-1.3-1-2v2c-.8,0-1.6,0-2.5,0-6.9,0-13.7,0-20.5.4-.7,0-1.4,0-2.1,0-4.3.2-7.9,1-11.9,2.5-.3-1-.7-2-1-3v3h-4v-2l2-1h-3v4c-.7-.3-1.3-.7-2-1q-.6-2.1-1-4h-2c-.3,1-.7,2-1,3h2v2c-2,0-4,0-6.1,0q-2,0-3.9,1.1v-3h6c-.3-.7-.7-1.3-1-2h-10l1,5c-1.6-.1-3.2-.3-4.8-.4-.9,0-1.8-.2-2.7-.2q-2.5-.3-5.5-1.3v-2c-.7.3-1.3.7-2,1l1,3c-2.5-.8-4.7-1.8-7-3-.3,1.3-.7,2.6-1,4l-3-1v2h-5l-1-2v2c-2,.3-4,.7-6,1,.3-1,.7-2,1-3q-1.9-.7-4-1l-2,2h3v2q-3.5.5-7,1c-.3-1-.7-2-1-3v3h-4l-1-4-2,4h-22v2c-.6,0-1.1,0-1.7,0-5.2,0-10.2.3-15.3,1v-2h-2l-1,2-3,1-1-2v2h-8v-2c-2.3-.3-4.6-.7-7-1v2h-3l-1-2c-.7.7-1.3,1.3-2,2l1,2h-2l-1-2c-1.1,10.4-1.1,20.6-1,31,0,1.1,0,2.2,0,3.3,0,1,0,1.9,0,3,0,2.7-.5,5.1-1.1,7.7,0,2.5-.1,5-.1,7.5,0,1.3,0,2.6,0,3.9.1,3,.4,5.7,1.1,8.6,8.4,1.2,16.4.9,24.8.2,1,0,1.9-.2,2.9-.2,5.2-.5,10.2-1.3,15.3-2.5,8.6-2,17.3-2.6,26.1-2.8,8.2-.3,16-1.4,24-3.3,4.7-1.1,9-1.5,13.9-1.4,2.2,0,4.4-.2,6.6-.5,3.8-.5,7.5-.6,11.4-.5v-2c.9,0,1.9,0,2.8,0,6.2,0,12.1,0,18.2-1,6.4-.9,12.8-1.4,19.2-1.9,6.1-.5,12.2-1,18.2-2.1,7.2-1.2,14.5-1.7,21.8-2.2,5.7-.4,11.1-1.1,16.7-2.4,3-.6,6-.4,9.1-.4,3.2-.4,6.4-1,9.7-1.5,3-.5,6-.8,9-1,3.4-.3,6.7-.7,10-1.5,7-1.5,14.2-1.7,21.3-2v-2h20v-2c.8.1,1.7.2,2.5.3,1.1.1,2.2.2,3.3.4,1.1.1,2.2.3,3.3.4q2.9.2,4.8-1.6c.4-.5.7-1,1.1-1.5.3.7.7,1.3,1,2l3-2c1.8.3,3.7.5,5.5.8,4.1.3,8-.6,12.1-1.4,2.7-.4,5-.5,7.8-.4,4.8,0,9.4-.6,14.2-1.5.8-.1,1.6-.3,2.5-.4q3.8-.4,7-2.2c2.7,0,5.4,0,8.1.2,3.1-.2,5-1,7.9-2.2,2.1-.3,4.2-.4,6.2-.6,6.5-.4,12.9-1,19.2-2,2.7-.3,4.9-.4,7.6-.4,5,0,9.7-.7,14.6-1.6,5.2-.9,10-1.6,15.3-1.5,1.5-.3,3-.6,4.5-1,3.6-.9,6.8-1.2,10.5-1,.3-.9.6-1.7.9-2.6.7-2,1.4-4.1,2.1-6.1,1.1-3.6,1.9-7.2,2.5-11,.1-.7.3-1.4.4-2.1.6-3.2,1.1-6.4,1.7-9.6q.3-1.5.5-2.9c.1-.8.3-1.7.4-2.6q.4-2.1,1.4-5.1c.2-2.1.4-4.1.6-6.2.1-1.9.3-3.8.4-5.8-4.3.3-8.6.7-13,1-.3-.7-.7-1.3-1-2ZM1168,1214.8l4,1-4-1ZM1161,1215.8v2h2v-2h-2ZM1134,1217.8c.3,1,.7,2,1,3,.7-.3,1.3-.7,2-1-.3-.7-.7-1.3-1-2h-2ZM333,1219.8c.3,1,.7,2,1,3,.7-.7,1.3-1.3,2-2-1-.3-2-.7-3-1ZM1008,1229.8l1,2-1-2ZM1584,1229.8l1,2-1-2ZM336,1230.8c-.3.7-.7,1.3-1,2h2c-.3-.7-.7-1.3-1-2ZM979,1233.8v1h6v-1h-6ZM341,1265.8l1,2-1-2ZM343,1269.8v2h2c.3.7.7,1.3,1,2v-3c-1-.3-2-.7-3-1ZM347,1275.8l1,2-1-2ZM1185,1280.8l1,2-1-2ZM807,1282.8v4h2l-2-4ZM1482,1308.8l1,2-1-2ZM572,1314.8l1,2-1-2ZM1315,1330.8l4,1-4-1ZM1353.2,1336.4c-4.8.6-9.6,1.1-14.3,1.6-.8,0-1.6.2-2.4.3-1.8.2-3.6.4-5.4.6,2.4,3.8,4.9,7.2,8.1,10.4.7.7,1.3,1.4,2,2.1q1.9,1.9,4.9,1.5c.3,1,.7,2,1,3,1.6.7,3.3,1.4,5,2,1.7,1,3.3,2,5,3,.6.3,1.3.7,2,1,9.3,4.8,16.1,11.6,22.4,19.8,8,10.4,15.6,19.5,26.8,26.6.7.5,1.5.9,2.2,1.4,5.4,3.2,9.4,3.7,15.6,3.2q4,0,7,1v-2h3l-1,3c1.1-.2,2.2-.5,3.4-.8,4.8-.6,8.2.9,12.5,2.8q2,1,4.1.9c.3,1.3.7,2.6,1,4h3v-2c.9.1,1.8.3,2.8.4,1.4.2,2.8.4,4.2.6q1.2.2,2.5.3c21.5,2.3,41.3-.6,58.8-14q1.8-1.3,4-1.8c.6-.2,1.2-.3,1.8-.5.3-1,.7-2,1-3q1.8-1.1,4-2c.8-.3,1.6-.7,2.5-1,3.2-1.2,6.3-2.3,9.6-3.3q2.1-.7,4.5-1.9c3.9-1.2,7.5-.4,11.5.2-.2-.6-.4-1.2-.6-1.8q-.4-2.2,1.6-5.2v-2c7.1-3.3,15.2-4.1,22.9-5.2,1.3-.2,2.5-.4,3.8-.6,3.4-.2,4.5.2,7.3,1.8l2-1c-.8,3.7-1.4,6.4-4,9.2-6.2,3.6-13,5-20.1,5.5q-2.1.2-4.9,1.2v2c8.9.3,16.8.2,25.4-2.3,3.9-1,7.8-1.6,11.6.3,2.3.4,4.7.7,7,1,1.7.3,3.3.6,5,1v2h3v3c1.7.3,3.3.7,5,1v2c.7.3,1.5.6,2.2.9q6.4,2.6,8.8,6.1h2c1.8,4.5,2.3,8.2,2,13-.3.7-.7,1.3-1,2,0,2,0,4,0,6q2.1-2.9,3.4-6.1,1.6-2.9,4.6-3.9c0,1.1-.1,2.1-.2,3.2.2,3.9.6,5,3.2,7.8.7-.3,1.3-.7,2-1-.2-1.2-.3-2.4-.5-3.6-.2-1.6-.4-3.1-.6-4.7-.1-.8-.2-1.6-.3-2.4l-.3-2.3c0-.7-.2-1.4-.3-2.1q0-1.9,2-4.9c-1.1-2.3-2.2-4.5-3.4-6.8-.3-.6-.6-1.3-1-1.9-1.4-2.9-2.9-5.6-4.7-8.2h-2v-2h-2c-.3-1.3-.7-2.6-1-4h-4c-.3-.7-.7-1.3-1-2-1.8-2.3-2.6-2.9-5.5-3.4q-2.5-.6-4.1-3.1c-.5-.8-.9-1.7-1.4-2.6-3.1-2.1-4.8-2.5-8.4-3.1q-5.3-.9-7.8-1.5-1.9-.5-4.3-.4c-2.4,0-4.2-.4-6.5-1h-2v-2c-2.3-.3-4.6-.7-7-1v2c-.7-1-1.3-2-2-3q-2.3-.4-4.9-.2c-.9,0-1.8,0-2.7,0q-2.6.1-5.4,1.2c-1.4.2-2.8.3-4.2.4-4.1.4-7.8,1.4-11.8,2.6-2,.3-4,.7-6,1-.3.3-.7.7-1,1-.8,0-1.5,0-2.3,0-2.9,0-4.2.6-6.7,2.1-2.7,1.5-3.8,2-7,2-.3,1-.7,2-1,3q-1.9.9-4.3,1.6c-.9.3-1.8.5-2.7.8-.9.3-1.9.5-2.9.8q-1.4.4-2.8.8c-13.8,3.9-36.9,6.8-50.3,0-2,0-4,0-6,0-2.4,0-4.7-.5-7-1h-3v-2h-5c-.3-.7-.7-1.3-1-2-2.1-1.3-4.3-2.5-6.5-3.8-5.1-2.8-10-5.8-14.7-9.2q-1.9-1.3-4.8-1c-.3-1-.7-2-1-3q-2.8-2.3-6-2l-1-3h-3c-.2-.8-.5-1.5-.7-2.3-1.6-3.3-3.2-3.9-6.3-5.7-2-2.3-3.7-4.3-5-7-.7-.4-1.5-.9-2.2-1.3-4.2-2.6-7.1-5.6-9.8-9.7-12.2-1.9-25.7,1.1-37.8,2.6ZM1435,1333.8c-.3.7-.7,1.3-1,2h2c-.3-.7-.7-1.3-1-2ZM994,1372.8v2q-1.2-.3-2.4-.6c-3.9-.5-7.2-.2-11.1.3-3.5.4-7,.3-10.5.3v2q-1,0-2,0c-7.9-.1-15.5.8-23.3,2-5.9.8-11.6,1.1-17.6,1.1-5.5,0-10.9.5-16.3,1-1.1,0-2.3.2-3.4.3-2.8.2-5.5.5-8.3.7v2c-.6-.2-1.1-.4-1.7-.6-2.7-.5-4.4-.2-7,.4-4.2.9-8.3,1.5-12.5,1.9q-1.9.2-3.8,1.2c-1.4,7.4-1,15-.4,22.5.4,5.7.4,11.4.3,17.1,0,7.5.4,14.5,1.6,21.8.9,6.2,1.2,12.4,1.5,18.6h2c.1,1.1.2,2.1.3,3.2.7,6,2.3,11.9,3.7,17.8q.2,1.2.5,2.3c.2.6.4,1.1.5,1.7.7.3,1.3.7,2,1q.6,3.1,1,6h2c0,.6,0,1.2.1,1.8.4,4.4.9,8.2,2.9,12.2h2c0,.7.2,1.4.3,2.1,2.2,8.7,9.6,16.2,15.6,22.6q2.1,2.3,4.2,4.9c2.1,2.6,4.3,4.3,6.9,6.3,1.7,1.6,3.4,3.3,5,5,.8.8,1.5,1.5,2.3,2.3s1.1,1.1,1.7,1.7h-2c.3,1,.7,2,1,3,1-.7,2-1.3,3-2h2c0,.6.1,1.2.2,1.9.3.7.5,1.4.8,2.1,1.7.7,3.3,1.3,5,2,1.7,1.2,3.4,2.5,5.1,3.8,5.4,4,10.7,6.7,16.9,9.2,1.7.8,3.5,1.5,5.2,2.3,1.3.6,2.5,1.1,3.8,1.7v2h2v-2q6.9,2.8,8,5c4.3,1.2,8.6,2.2,13,3v2h13v2c-1.3.3-2.6.7-4,1,.7.7,1.3,1.3,2,2,.7-.3,1.3-.7,2-1v2h2c.3-1.7.7-3.3,1-5,.7.2,1.3.4,2,.6q1.3.4,2.7.8c.9.3,1.7.5,2.6.8,2.5.7,5.1,1.3,7.7,1.8l1,4h2c.7-1,1.3-2,2-3,.6,0,1.2.2,1.9.3.8.1,1.6.2,2.4.3.8.1,1.6.2,2.4.3q2.4.3,5.3-.9c.3,1.3.7,2.6,1,4l3-3q3,1,4,3h5l-2-4c.9.2,1.8.4,2.8.6,3.1.4,4.3.2,7.2-.6,1.2,0,2.4,0,3.6,0q3.4.3,5.4-2.1c-.7-.3-1.5-.5-2.3-.8-1-.4-2-.7-3-1.1-1-.3-1.9-.7-3-1.1-4.6-1.7-8.2-3.7-11.8-7.1q-.8-2.2-1-4h-2c.3-4.3.7-8.6,1-13h2c.2-.8.4-1.7.6-2.6,1.9-4.7,4.8-9.2,9.5-11.5q2.2-.9,2.9-4c2-.7,4-1.4,6-2q1.5-1.4,3-3c4.3-3.3,7.5-4.6,13-5v-2q1.2,0,2.4-.1c1.1,0,2.1-.1,3.2-.2q1.5,0,3.1-.2,3.4-.4,6.7-2c4.3-1.7,7.5-1.9,12-1.7.8,0,1.5,0,2.3,0,2.1,0,4.2.1,6.4.2.9,0,1.8,0,2.8,0,5.6.4,10.2,2.3,15.2,4.9.9.5,1.9.9,2.9,1.4,3.8,2.8,4.9,5.5,5.8,10.1.1,1.1.2,2.3.4,3.4.3,1.3.6,2.7,1,4,.4-.6.9-1.2,1.3-1.8,6.3-8.4,11.3-11.6,21.7-13.2q.2-3.9-1-7c-2-.3-4-.7-6-1-2.1-7.1-3.6-13.6-.3-20.5.8-1.2,1.5-2.3,2.3-3.5.8-1.5,1.6-3,2.4-4.5,2.3-4.2,5-8.2,8.6-11.5h2v-3h2c.6-.7,1.3-1.3,1.9-2q2.1-2,5.1-2v-3c2-.7,4-1.3,6-2v-2h3v-2c1.1-.3,2.2-.5,3.3-.8q3.6-.8,5-2.6c7.1-6.7,21.4-6.8,30.6-6.6.3,1.3.7,2.6,1,4v-2q3,1,4.7,3.8c1.3,3.1,1.6,5,1.3,8.2q2-.6,4-2,.4-1.3.8-2.6c2.4-6.7,7.9-12.2,14.2-15.4h3c.3,1,.7,2,1,3,1.3-.3,2.6-.7,4-1l-1-2h5c-.4-1.2-.7-2.3-1.1-3.5-1.1-4.6-1-7.9,0-12.5,2.3-2.9,3.5-3.8,7-5h3c.6-.2,1.2-.4,1.8-.6,3.3-.6,5.9.1,9.1.8,1.2.3,2.4.5,3.6.8,3.5,1,6.3,2.3,9.5,4,2.7.8,5.3,1.4,8,2v2c1.1.6,2.3,1.2,3.4,1.9q3.4,1.9,4.6,4.1h2c.2.9.5,1.9.8,2.8,1.3,3.4,2.2,4.4,5.2,6.2h2l-1,2-3,1c.2.6.4,1.1.6,1.7.5,2.9.4,4.6-.6,7.3q-2.6,1.3-5,2c.7.7,1.3,1.3,2,2,.7-.3,1.3-.7,2-1v2q1.2.2,2.4.4c.8.2,1.7.4,2.6.6l1,2c1,.3,2,.7,3,1l1,2h3c.3.6.5,1.1.8,1.7q1.1,2.3,2.6,4.4c4.4,7.9,6.2,14.9,6.6,23.9,0,1.3.2,2.5.3,3.8.5,6.8.8,13.6.6,20.5,0,1.1,0,2.2,0,3.3,0,2.1,0,4.3-.2,6.4-.1,7.4,1.3,13.2,4.3,19.9h2c0,.5.2,1.1.2,1.6,1,3.3,2.7,5.7,4.8,8.4,1,.3,2,.7,3,1,.7-.7,1.3-1.3,2-2q-.2-3-.9-6.4-1.2-6.3,0-9.6c-.3-2.3-.6-4.7-1-7-.2-1.5-.3-2.9-.5-4.4,0-.7-.2-1.5-.2-2.3q-.1-1.2-.3-2.4c-.2-1.7-.4-3.4-.6-5.1-.1-1.3-.3-2.6-.4-3.9h2v-2h-2q.1-1,.3-2,.8-6.5-.3-13h-1v-6c1.3-.3,2.6-.7,4-1-.7-.3-1.3-.7-2-1,.3-1,.7-2,1-3q-.7-1.9-1.9-3.7c-.7-1.1-1.4-2.2-2.1-3.3.7-.3,1.3-.7,2-1v-1c.7,1.7,1.3,3.3,2,5h1v-8h-3c.3-3.3.7-6.6,1-10-1.3.3-2.6.7-4,1-.3-1-.7-2-1-3,1.3-.3,2.6-.7,4-1v-2c-1-.3-2-.7-3-1,.3-2,.7-4,1-6-1.3.3-2.6.7-4,1-.3-1.3-.7-2.6-1-4l3-1q-.8-2.2-3-3c-.1-1-.2-1.9-.4-2.9q-.3-1.5-.6-3.1c-.6-.3-1.3-.6-1.9-.9-.7-.4-1.4-.7-2.1-1.1-.7-2.3-1.4-4.7-2-7-1-.3-2-.7-3-1-1-1.7-2-3.3-3-5h-2c-.3-1-.7-2-1-3-.6-.1-1.3-.3-1.9-.4-.7-.2-1.4-.4-2.1-.6q-.4-.9-.7-1.7c-1.9-3.3-4.8-5-7.9-7.1-.6-.4-1.2-.8-1.8-1.3-3.5-2.3-5.8-3.2-10-2.7-1.2.3-2.3.5-3.5.8v-2q-1.2-.4-2.4-.9-2.6-1.1-4.6-3.1c-.6.2-1.2.4-1.9.6-.7.1-1.4.2-2.1.4q-.9-.9-1.8-1.9c-2.8-2.7-4.6-2.6-8.4-2.9-2.3-.3-3.9-1-5.9-2.2-14.3-4.8-34.3,0-48,5-.8.2-1.6.3-2.4.5-3,.6-5.8,1.5-8.6,2.5-1,.3-2,.7-3.1,1-2.7.9-5.3,2-7.9,3v2c-1-.3-2-.7-3-1q-2.1.6-4.3,1.8c-.8.4-1.6.8-2.4,1.1-.8.4-1.5.7-2.3,1.1-1.2.5-2.3,1-3.5,1.6q-2.8,1.2-3.5,4.4c-.9.1-1.9.3-2.9.4q-3,.4-5.1,1.6v4l-1-2h-2v3c-.6-.2-1.1-.5-1.7-.7q-2.5-.5-5.1.9-1.1.9-2.2,1.8v3l-4,2v2h-3v-2h2l-1-2c-.5.3-1,.6-1.4.8-10.7,6.1-21.9,11.3-33.6,15.2q-1.4.5-2.8,1c-9.5,3.2-19.1,4.4-29,5.7-2.4.3-4.8.8-7.2,1.3-1.4.2-2.8.3-4.2.5q-3.6.3-5.8,1.5c-1.5,0-3.1,0-4.6,0-.8,0-1.6,0-2.5,0-.6,0-1.3,0-1.9,0-.3,1-.7,2-1,3q-1-.5-2-.9-3-1.2-6.6-1.3c-11.6-1.3-20.8-9.5-28.4-17.8q-1.3-2.3-2-4h-2c-1.2-2.3-2.2-4.5-3-7-1.2-1.1-2.4-2.3-3.5-3.4-3.7-4-6.5-8.9-9.2-13.6q-.6-1-1.2-1.9h-2c0-.5-.2-1.1-.2-1.6q-.7-2.5-2.6-5c-2.3-3.6-3.3-6.9-4.4-11q-.6-2.4-1.8-4.4c-1.2-2.6-1-5-.8-7.8q0-2.2-1.1-4.4c-1.3-3.4-1.2-6.2-1.1-9.8,0-1.2,0-2.4,0-3.7,0-1,0-2.1,0-3.2,0-2.8-.2-5.4-.5-8.2,0-.9-.2-1.8-.3-2.7,0-.7-.1-1.4-.2-2.1-4.4-1.1-8.5-1.1-13-1ZM1008,1375.8l1,2-1-2ZM762,1377.8l1,2-1-2ZM1303,1380.8l1,2-1-2ZM1314,1380.8c.3.7.7,1.3,1,2,.7-.3,1.3-.7,2-1-1-.3-2-.7-3-1ZM1330,1381.8c.3.7.7,1.3,1,2,.3-.7.7-1.3,1-2h-2ZM1570,1385.8v2l-2,1q1.7,3.2,4.6,3.7,1.2.2,2.4.3v-2c.7,0,1.4,0,2.1.1,6.7.3,12.2-.3,17.9-4.1q2.1-2.5,3-5c-8.9-.5-19.9,0-28,4ZM289,1382.8l1,2-1-2ZM1289,1382.8c-.3.7-.7,1.3-1,2h2c-.3-.7-.7-1.3-1-2ZM1511,1383.8l4,1-4-1ZM1519,1384.8l-2,2h3c-.3-.7-.7-1.3-1-2ZM1346,1386.8c-.3.7-.7,1.3-1,2,1.3.3,2.6.7,4,1l-3-3ZM1570,1393.8v2c1,.3,2,.7,3,1v-2l2-1h-5ZM1362,1394.8c.3.7.7,1.3,1,2,1-.3,2-.7,3-1-1.3-.3-2.6-.7-4-1ZM1365,1397.8l2,2v-2h-2ZM755,1399.8l1,2-1-2ZM1372,1401.8v2c.7-.3,1.3-.7,2-1-.7-.3-1.3-.7-2-1ZM754,1402.8c.7.7,1.3,1.3,2,2v-2h-2ZM562.4,1412.3c-.5.5-.9,1-1.4,1.5q2-.3,4-1c.3-.7.7-1.3,1-2q-2.1-.2-3.6,1.5ZM674,1417.8l1,2-1-2ZM550,1418.8c-.3.7-.7,1.3-1,2,1-.3,2-.7,3-1-.7-.3-1.3-.7-2-1ZM1521,1418.8l1,2-1-2ZM1658,1419.8l1,2-1-2ZM540,1422.8c.3.7.7,1.3,1,2,.7-.7,1.3-1.3,2-2h-3ZM671,1423.8l1,2-1-2ZM1114,1424.8c.3,1,.7,2,1,3,.7-.3,1.3-.7,2-1v-2h-3ZM672,1425.8l1,2-1-2ZM1390,1425.8v3-3ZM668,1427.8c-.3,1-.7,2-1,3,1,.3,2,.7,3,1-.7-1.3-1.3-2.6-2-4ZM833,1427.8l1,4c.3-1,.7-2,1-3-.7-.3-1.3-.7-2-1ZM523,1431.8c.3.7.7,1.3,1,2,.3-.7.7-1.3,1-2h-2ZM1649,1431.8l-2,1v4l4,2c.3-1.7.7-3.3,1-5-1-.7-2-1.3-3-2ZM1644,1435.8l1,2-1-2ZM1655,1436.8l1,4-1-4ZM1574,1438.8c-.7,1.3-1.3,2.6-2,4h2c-.3,2.3-.7,4.6-1,7,1,.3,1.9.5,2.9.8,1,.4,2,.8,3.1,1.2.3,1,.7,2,1,3,9.2,6.3,19.8,11.2,31,11q-2.8-1.9-5-3v-3h-2c-.3-1.3-.7-2.6-1-4h-2v-3c-.7-.1-1.4-.2-2.1-.3-.9-.2-1.8-.3-2.8-.5-.9-.2-1.8-.3-2.7-.5q-2.4-.7-4.4-3.7c-.7-.3-1.3-.6-2-.9-2.5-1.3-2.8-2.6-4-5.1-3.2-2.1-5.3-2.5-9-3ZM867,1441.8l1,2-1-2ZM1300,1443.8l1,2-1-2ZM1643,1443.8c-.2.6-.5,1.2-.7,1.9q-2.6,6.5-5.4,9.1c-5.3,1.9-10.5,3.7-16,2.2-.6-.4-1.2-.7-1.9-1.1.4,1.1.7,2.1,1.1,3.2q1.2,4.7,0,7.8c1.7.3,3.3.7,5,1,.3-.7.7-1.3,1-2h2v2c6.8-.6,13.2-1.5,18.5-6.2.5-.6,1-1.2,1.5-1.8l-2-2c2.3-.7,4.6-1.3,7-2,.3-3.6.7-7.3,1-11l-4,2v4h-5c.7-1,1.3-2,2-3-.3-1-.7-2-1-3v2q-2-1-3-3ZM1284,1447.8v3c-.8.3-1.6.5-2.4.8q-2.9,1-4.6,4.2l3,3v-2h2c0,.6.1,1.1.2,1.7,1.2,3.3,3.2,5,5.8,7.3h2v2c7.9,4.8,14.9,6.9,23.9,8.1,3.7.5,5.9.8,9.1,2.9q2.1,0,4-1l1-3c-.3-.3-.7-.7-1-1,1-.3,2-.7,3-1l-1-6h-2c0-.6-.1-1.2-.2-1.8-1.1-3.1-3-3.7-5.8-5.2-.7-.7-1.3-1.3-2-2-2.1-1-4.1-2-6.2-3-1.1-.5-2.2-1-3.4-1.6-3.1-1.3-6.2-2.4-9.4-3.4-.7-.3-1.3-.7-2-1-2.4-.2-4.7-.4-7.1-.6-1.3,0-2.6-.2-3.9-.3q-1.5,0-3-.2ZM1612,1451.8v1h5v-1h-5ZM1605,1452.8l-2,1c.3.7.7,1.3,1,2,1-.7,2-1.3,3-2-.7-.3-1.3-.7-2-1ZM1609,1456.8v4h3v2h2c.3-1.3.7-2.6,1-4-2-.7-4-1.3-6-2ZM1649,1457.8l1,2-1-2ZM827,1461.8l1,2-1-2ZM1615,1461.8l1,2-1-2ZM825,1463.8l1,2-1-2ZM1264,1464.8l-1,2h2l-1-2ZM1279,1464.8l1,2-1-2ZM1617,1465.8c-.3.7-.7,1.3-1,2h2c-.3-.7-.7-1.3-1-2ZM707,1468.8c-.3.7-.7,1.3-1,2h2c-.3-.7-.7-1.3-1-2ZM1224,1472.8c-.3,1-.7,2-1,3l-5-2c-.7.7-1.3,1.3-2,2-1.3.7-2.6,1.4-4,2v2c-3.6,1.3-7.3,2.6-11,4v2h-2v2c-.9.2-1.7.4-2.6.6-3.9,1.7-5.4,3.4-7.9,6.7q-1.4,1.8-3.9,4c-3.5,3.9-8.5,10.3-8.5,15.8h-2q-2.1,8-1,16c2,2.8,3.4,3.8,6.7,4.9,13,.5,23.9-8,34.3-14.9.7-.5,1.4-.9,2.2-1.4,3.3-2.3,5.1-4,6.8-7.6.7-.1,1.3-.2,2-.4.7-.2,1.3-.4,2-.6q.4-1.3.9-2.7c1.3-3.7,3-6.3,5.3-9.5q3.1-4,3.9-8.8h2c.4-1.2.7-2.5,1.1-3.8.2-.7.4-1.4.6-2.1.4-2.4.2-3.9-.7-6.1q-1.9-1.2-4-2c-.7-.7-1.3-1.3-2-2-2,0-4,0-6,0q-2.4-.5-4-1ZM614,1473.8l1,2-1-2ZM612,1474.8l1,2-1-2ZM1258,1474.8l1,2-1-2ZM1255,1477.8c.7.7,1.3,1.3,2,2v-2h-2ZM598,1479.8l1,2-1-2ZM579,1483.8v3h2c-.3-1-.7-2-1-3h-1ZM1073,1483.8v2h2v-2h-2ZM1322,1483.8l1,2c1-.7,2-1.3,3-2h-4ZM1365,1483.8l1,2-1-2ZM1197,1484.8l-1,2h2l-1-2ZM556,1487.8c.3.7.7,1.3,1,2,.3-.7.7-1.3,1-2h-2ZM534,1488.8v2c.7-.3,1.3-.7,2-1-.7-.3-1.3-.7-2-1ZM476,1492.8l1,2-1-2ZM1237,1492.8l1,2-1-2ZM448,1494.8l1,2-1-2ZM1248,1496.8l1,2-1-2ZM1413,1496.8l1,2-1-2ZM881,1502.8l1,2-1-2ZM1352,1515.8l1,2-1-2ZM644,1517.8c.3.7.7,1.3,1,2,.7-.3,1.3-.7,2-1-1-.3-2-.7-3-1ZM1225,1521.8v2q2-.3,4-1c.3-1,.7-2,1-3q-2.3-.2-5,2ZM460,1520.8l1,2-1-2ZM1366,1520.8v2h2v-2h-2ZM632,1521.8c-.3.7-.7,1.3-1,2h2c-.3-.7-.7-1.3-1-2ZM444,1522.8c.7.7,1.3,1.3,2,2v-2h-2ZM441,1524.8q-1,1.5-2,3h3c-.3-1-.7-2-1-3ZM1221,1524.8c-.3,1.3-.7,2.6-1,4,1.3-1.3,2.6-2.6,4-4h-3ZM427,1525.8q-1,1.5-2,3h5c-1-1-2-2-3-3ZM403,1530.8l1,2-1-2ZM782,1534.8c.7.7,1.3,1.3,2,2v-2h-2ZM1125,1537.8l-1,2h2l-1-2ZM1119,1540.8c-1.8,0-3.6.1-5.4.2-18.5.5-38.3,7.5-51.6,20.8v2c-.6.2-1.2.4-1.9.6-3.1,2.1-3.2,4.9-4.1,8.4l-3,1c1.5,6.4,2.8,10.6,8,15l1,2c6.7,2,13.2,2.2,20.2,2.2q1.3,0,2.6,0c5.1,0,9.4-.6,14.2-2.3v2h3c-.3-1-.7-2-1-3,1.7-.7,3.3-1.3,5-2v2q2.5-.8,5-2c.3-1,.7-2,1-3,.8,0,1.6,0,2.4.1q2.8.2,4.6-2.1c.8-.3,1.6-.6,2.4-.9,2.6-1.1,4.5-2.2,6.6-4.1v-2q2-1,4-1.4,2.4-.5,4-3.6l2-1c.4-1.7.7-3.3,1-5q2-3,5-5h-2c.4-.6.8-1.3,1.2-1.9,1.2-4.5-.5-7.8-2.2-12.1h-3l-1-4c-.6.2-1.2.4-1.8.6q-2.2.4-5.2-1.6h-3v2c-.6-.5-1.2-1-1.9-1.5-2.6-1.9-3.3-1.9-6.1-.5ZM1353,1541.8l1,2-1-2ZM915,1545.8l1,2-1-2ZM907,1547.8c-.3.7-.7,1.3-1,2h2c-.3-.7-.7-1.3-1-2ZM1353,1548.8l1,2-1-2ZM1147,1550.8l1,2-1-2ZM758,1552.8v2c.7-.3,1.3-.7,2-1-.7-.3-1.3-.7-2-1ZM1146,1557.8l1,2-1-2ZM411,1559.8l1,2-1-2ZM402,1561.8c-.3.7-.7,1.3-1,2h2c-.3-.7-.7-1.3-1-2ZM436,1562.8v2h2v-2h-2ZM451,1568.8c-.3.7-.7,1.3-1,2,1,.3,2,.7,3,1-.3-1-.7-2-1-3h-1ZM454,1570.8v2c1.7-.3,3.3-.7,5-1v-1h-5ZM931,1570.8c.7.7,1.3,1.3,2,2v-2h-2ZM692,1576.8v2c.7-.3,1.3-.7,2-1-.7-.3-1.3-.7-2-1ZM688,1579.8l1,2-1-2ZM1052,1580.8v2c.7-.3,1.3-.7,2-1-.7-.3-1.3-.7-2-1ZM1054,1583.8c.7.7,1.3,1.3,2,2v-2h-2ZM1369,1584.8c.7.7,1.3,1.3,2,2v-2h-2ZM986,1588.8l1,2-1-2ZM1104,1588.8v3-3ZM598,1590.8l1,2-1-2ZM987,1590.8c.3.7.7,1.3,1,2,.3-.7.7-1.3,1-2h-2ZM1016,1595.8l1,4c1.6.3,3.3.7,5,1-.3-1-.7-2-1-3q-2.5-1.2-5-2ZM1060,1597.8c-.3,1-.7,2-1,3h3v-3h-2ZM1070,1597.8l1,2h2v-2h-3ZM1035,1598.8v2c.7-.3,1.3-.7,2-1-.7-.3-1.3-.7-2-1ZM1039,1598.8l-1,2h2l-1-2ZM331,1627.8v2h2v-2h-2ZM336,1636.8v2h2v-2h-2ZM387,1655.8v2c1-.3,2-.7,3-1-1-.3-2-.7-3-1ZM347,1658.8l1,2-1-2ZM352,1664.8c-.3.7-.7,1.3-1,2h2c-.3-.7-.7-1.3-1-2ZM409,1713.8c.7.7,1.3,1.3,2,2v-2h-2Z" class="st4"/>
  <path d="M1605,1109c3.6,1.6,5.6,3.9,7.1,7.5,3.2,12.9,1.3,27.1-4.1,39.3-1,.7-2,1.3-3,2,.3.7.7,1.3,1,2q-.7,2.1-1.8,4.6c-.3.8-.7,1.6-1,2.4q-1.2,2-4.2,3v6c-1,.3-2,.7-3,1-.3,1.7-.7,3.3-1,5-1,.3-2,.7-3,1q1,1.5,2,3c-1.2,2.2-2.5,4.4-3.7,6.6q-.5.9-1,1.9c-2.4,4.3-5.1,7.8-8.3,11.5q-1.3,1.9-2.2,3.7-1.8,3.3-3.8,6.3h-2v2h-2c-.3,1-.7,2-1,3h-2v2c-6.5,4.5-11.1,4.1-18.8,3-3.5-1.1-4.9-2.1-7.2-5-1.7-6.7-.8-13.4,1-20,1.7.3,3.3.7,5,1v-9h2c-.3-2.3-.7-4.6-1-7q1-.5,2-1t1.9-4.3l1.1-2.6c.4-.9.7-1.8,1.1-2.7.4-.9.7-1.8,1.1-2.7.9-2.2,1.8-4.5,2.7-6.7l-2-2h2c-.3-1-.7-2-1-3,1-.7,2-1.3,3-2,.4-1.3.7-2.7,1-4,2.8-5.8,5.9-11.1,10-16v-2h2l1-4h2c.3-.8.6-1.6.9-2.4q1.1-2.6,3.1-3.6l2-3h2v-3c1.6-1,3.3-2,5-3l2.6-2.6c2.2-2.2,3.6-3.3,6.4-4.4.7-.4,1.3-.8,2-1.2q2-.8,4-.7ZM1595,1120.8v3h2l-1-3h-1ZM1604,1119.8c-8.1,5.6-13.4,11.8-18.7,20.2q-1.3,1.8-3.3,2.8c-1.1,2-2,4-3,6-1,2-2,4.1-3.1,6.1-.3.7-.7,1.4-1.1,2.1q-.5,1-1.1,2.1-.9,1.8-.8,3.8h-2c-.5,1.3-1,2.5-1.5,3.8-.3.7-.6,1.4-.8,2.1q-.8,2.2-.7,5-1.5.5-3,1-1.7,1.3-3,3c-.2,2.1-.5,4.2-.6,6.4-.4,3-1.3,5.5-2.3,8.3-2.5,7-3.3,14-4.1,21.4,4.9,0,7.6-3.7,11-7q2.1-2.3,4-5c.6-.8,1.2-1.6,1.8-2.5q3.7-4.4,5.2-9.5h3c.7-3,1.3-5.9,2-9q2-.5,4-1,1.1-1.7,2-4c.7-.9,1.3-1.9,2-2.9,2-3,2.9-5.7,4-9.1.5-.9,1.1-1.7,1.6-2.6q1.7-2.5,1.4-6.4h-2c.3-1.1.7-2.1,1-3.3.5-1.4.9-2.9,1.4-4.3q.3-1.1.7-2.1,3-9.5,5-19.3c.7,1.3,1.3,2.6,2,4,.2-1.3.4-2.6.6-3.9.1-.7.2-1.4.4-2.2,0-.6,0-1.3,0-1.9-.7-.7-1.3-1.3-2-2ZM1590,1126.8l1,2,1-2h-2ZM1600,1142.8v3-3ZM1598,1147.8v3c.7-.3,1.3-.7,2-1-.7-.7-1.3-1.3-2-2ZM1596,1171.8l-2,4c1.3-.7,2.6-1.3,4-2-.7-.7-1.3-1.3-2-2ZM1557,1189.8c.3,1,.7,2,1,3,.3-1,.7-2,1-3h-2ZM1555,1192.8l1,2-1-2ZM1554,1194.8l1,3-1-3ZM1583,1196.8l1,2-1-2ZM1552,1202.8l1,2-1-2ZM1544,1204.8c-1.3,4-1.1,7.9-1,12,.7-.3,1.3-.7,2-1v-5h2v-5c-1-.3-2-.7-3-1ZM1577,1204.8v2h-2v2h3l-1-4ZM1553,1206.8l-1,2h2l-1-2ZM1544,1216.8v5h1v-5h-1Z" class="st2"/>
  <path d="M1605.9,953.4c5.3,3.7,9.5,8.1,11.1,14.4.5,1.3,1,2.5,1.6,3.8,1.5,3.8,1.7,7.1,1.4,11.2q-.1,2.8.5,4.9c1.7,7.2.5,15.4,0,22.7q0,1-.1,2.1c-.2,3-.5,5.5-1.4,8.3,0,1.3,0,2.6.1,3.9,0,6.9-1.3,14.3-5.1,20.1v3h-2c0,.7-.1,1.5-.2,2.3-1,3.6-2.5,4.5-5.5,6.6-.9.6-1.7,1.2-2.6,1.8-2.9,1.5-4.5,1.8-7.6,1.4-3.7-2.8-4.8-5.6-6-10-.4-1.2-.7-2.4-1.1-3.6-1.2-4.4-2-8.2-1.9-12.7v-3.8c-.3-.3-.7-.7-1-1,0-1.8-.1-3.6-.1-5.4,0-1.1,0-2.2,0-3.4,0-1.2,0-2.3,0-3.5,0-1.2,0-2.3,0-3.5,0-1.1,0-2.2,0-3.4,0-1,0-2,0-3.1.1-2.4.5-4.4,1.1-6.7.2-1.8.4-3.6.6-5.4.8-7.4,1.8-14.6,3.3-21.9.1-.8.3-1.6.5-2.4,1-4.6,1.9-7.1,5.7-10.2.5-.9,1-1.7,1.5-2.6,2-3.1,3.7-4.9,7.4-3.8ZM1601,971.8q-.7,1.8-1,4c-.8,2.8-1.5,5.6-2.3,8.3-.2.9-.5,1.8-.7,2.7-.2.6-.3,1.2-.5,1.9-4.2,18.4-4.2,39.4,2.5,57.1h4c.7-1.3,1.3-2.6,2-4h1c4.2-19.4,6.6-37.2,5-57-.7-.3-1.3-.7-2-1-.4-2.3-.7-4.7-1-7-.6-2-1.3-4-2-6q-2.2-.1-5,1ZM1594,1000.8l1,2-1-2ZM1593,1020.8l1,3-1-3ZM1594,1052.8l1,2-1-2Z" class="st5"/>
  <path d="M904,1445.8c4.4,1.6,7.8,3.6,11,7l-1,2c-2.3-.3-4.6-.7-7-1v-2c-1.3.3-2.6.7-4,1v-2h-2v-2c-1.7.7-3.3,1.3-5,2v3l-2,2c-1.7,11.4.7,27,6.1,37.2q.4.9.9,1.8c-.3.7-.7,1.3-1,2h3v5q1.5-.5,3-1,.9,1.6,1.8,3.3c1.5,2.6,3,4.6,5.2,6.7.3.6.6,1.2.9,1.9,2,3.7,5,6.3,8.4,8.8q1.8,1.4,2.8,4.4c.8.5,1.6,1,2.5,1.5q2.5,1.5,3.5,4.5h2c.7.8,1.4,1.5,2.2,2.3,3.2,3.1,5.7,4.1,9.8,5.7q-1,.5-2,1c.6.1,1.2.3,1.8.4,1.7.4,3.5,1,5.2,1.6l-1,2h5v-1c1.1-.1,2.3-.3,3.4-.4q3.4-.2,4.6-1.6c.7-6.2-.4-11.4-2.6-17.2-.3-.7-.5-1.5-.8-2.2-3.9-10.4-9-20-15.1-29.3-1.3-2.1-2.4-4.1-3.5-6.3-1-1-2-2-3-3-2.2-2.4-3-3.5-3.2-6.8q0-1.1.2-2.2l2-1v3c.8.2,1.6.5,2.4.8q2.6,1.2,3.9,3.1c.7,2,1.3,4,1.8,6.1h2c.6,1.1,1.2,2.1,1.8,3.2,1.6,2.7,3.2,5.3,5.2,7.8,4.4,6.6,8.7,13.1,12.1,20.3q.9,1.9,2.9,4.1c4.7,6.2,6.9,13.3,6.6,21.1-1.2,4.8-4.6,7.1-8.6,9.6-7.4,3.6-13.7,2.3-21.2-.2-4.7-1.7-8-3.6-11.8-6.8-1-.3-2-.7-3-1-1.9-1.3-3.8-2.6-5.7-3.9-1-.7-2-1.4-3-2.2-.8-.6-1.5-1.3-2.3-1.9v-2c-.6-.3-1.2-.6-1.9-.9q-2.1-1.1-4.1-3.1v-3h-2c-.3-1.7-.7-3.3-1-5-1.7-.3-3.3-.7-5-1q1-2,3-3-1.5-1-3-2v-4c-1-.3-2-.7-3-1q-1.2-2-2.4-4.6c-.4-.9-.9-1.8-1.3-2.7-.4-.9-.8-1.8-1.3-2.7-.8-1.4-1.5-2.9-2.3-4.3-1.5-3-2.1-5.2-1.7-8.7v-2c-.7-.3-1.3-.7-2-1,.2-1.1.4-2.2.6-3.4.1-1.2.2-2.4.4-3.6l-2-2h2c-.2-.7-.3-1.3-.5-2-.6-3.8-.7-7.6-.6-11.5,0-.7,0-1.5,0-2.2,0-4.2.3-8.2,1.1-12.3h2v-2c3.2-1.6,6.5-1.5,10-1ZM912,1524.8l1,2-1-2ZM918,1529.8c-.3,1-.7,2-1,3,1-.3,2-.7,3-1-.7-.7-1.3-1.3-2-2ZM935,1543.8v2h2v-2h-2Z" class="st1"/>
  <path d="M322,1340.8v2l9,3v2c.8,0,1.6.2,2.4.2.9.2,1.7.5,2.6.8.3.7.6,1.3.9,2,.4.7.7,1.3,1.1,2q3.1.8,6,1v3q2.2,2.2,5.1,4.3c1,.8,2,1.6,3,2.4q1.4,1.1,2.9,2.3c4.6,3.7,7.8,7,11,12,2.1,2.6,4.2,5.1,6.3,7.6,1.6,2.2,2.3,3.7,2.7,6.4h5q1,2.5,2,5-1.5.5-3,1c.3.7.7,1.3,1,2h3c.3,1,.7,2,1,3l-2,2c-1,2.6-1.2,3.6,0,6.2.4.6.7,1.2,1.1,1.8h-3c-.7,1.7-1.3,3.3-2,5q-2-.5-4-1v3q-6.6,1-10,1c-.3-1-.7-2-1-3q-.8.3-1.6.6c-3.2.5-5.4-.5-8.4-1.6v-2q-4.4-1.8-9-1c-.3-.7-.7-1.3-1-2h-2q-1-1-2-2c-1-.3-2-.7-3-1-.3.3-.7.7-1,1-2.1-1.1-3.4-2.3-5-4-.3.7-.7,1.3-1,2-1.3-1.3-2.6-2.6-4-4h2l1-2c-1,.3-2,.7-3,1v-2q-1-.5-2-1c-1-.7-2-1.3-3-2q-3.7-2.5-8-3c-6.7-3.6-12.9-8.5-17-15v-3c-1.3-.3-2.6-.7-4-1v-4q-.8-1.8-2-3.5c-2-3-2-3.6-2-7.5-1-.3-2-.7-3-1q-1.2-1.9-2.2-4.3c-.4-.8-.7-1.6-1.1-2.4-.8-2.6-.5-3.8.3-6.3v-3.1q0-2.9,1-4.9h2c.2-.6.4-1.3.6-1.9q1.4-2.1,3.8-2.9c11.9-.6,22.7,2.1,33.6,6.8ZM296,1337.8l1,2-1-2ZM304,1339.8c.7.7,1.3,1.3,2,2v-2h-2ZM302,1340.8c-.3.3-.7.7-1,1-1.9,0-3.7,0-5.6,0-1,0-2,0-3.1,0q-1.2,0-2.4,0-1,4.1,0,8h-2v-2h-2v5h4c.3.6.6,1.3.9,1.9,2.6,5.4,5.3,10.4,9.1,15.1h2l1,4h2v2h2l2,4h2v3q1.7,1.8,3.8,3.4c2.2,1.8,4,3.3,5.7,5.6,1.7,2.2,3.2,3.1,5.6,4.3,4.2,2.2,8.1,4.7,11.9,7.5q2,1.4,4.9,1.1c.3,1,.7,2,1,3q1.8.9,3.9,1.5c.8.2,1.6.5,2.5.7.9.3,1.7.5,2.6.8.8.3,1.7.6,2.5.9,5.3,1.8,10.9,3.3,16.5,2.1q1.8-1.3,3-3v-2c.7-.3,1.3-.7,2-1q-.5-4-1-8h-2c0-1,0-1.9-.1-2.9-2-13.3-17.5-25.3-27.1-33.5-1.3-1.1-2.5-2.3-3.8-3.6h-3v-2h-2v-2q-1.9-1.6-4.4-3.1t-2.5-1.6q-2-1.4-4.2-1.2c-.7-.7-1.3-1.3-2-2v2h-3v-2q-4.5-2-9-4v2q-1.9-.4-4-1c-.3-.7-.7-1.3-1-2-2-.7-4-1.4-6-2ZM305,1385.8l1,4c1.3-.3,2.6-.7,4-1-1-.3-2-.7-3-1v-2h-2Z" class="st2"/>
  <path d="M502,1386.8v2c.7-.3,1.3-.7,2-1,5.7,0,10.2.7,15,4h3v2c.8.3,1.6.6,2.4.9q2.6,1.1,3.6,2.1c.6,5.8.7,11.2-3,16q-3.1.8-6,1l-1,2h-4l1,4q-3.3,1.6-7,3-1.5-1-3-2-1,1-2,2h-3v3q-6.6,2-10,2l-1-2q-2.9-.1-5.1.6t-3.9-.6v2c.7.3,1.3.7,2,1-1.3.3-2.6.7-4,1,.3-1,.7-2,1-3-.6.1-1.2.3-1.8.4-4.1.9-8.1,1.8-12.2,2.6.3.7.7,1.3,1,2-6.4,1.2-12.7,1.2-19.1,1.2-2.1,0-4.2,0-6.2,0q-15.3,0-21.6-2.2c-.3-.7-.7-1.3-1-2-2.3-.7-4.7-1.4-7-2-1-.3-2-.7-3-1,.3-1.7.7-3.3,1-5h-4c-1-3-2-5.9-3-9h3q1.6-1.6,3.1-3.6c12.5-14.7,34.7-17.3,52.8-20q2.3-.4,5.2-1.4c2,0,4,0,6,0q2.1,0,4.4-.5c8.3-1.6,17.2-.2,25.6.5ZM488,1390.8c.3.7.7,1.3,1,2,.3-.7.7-1.3,1-2h-2ZM417,1403.8v2c-.8.2-1.5.5-2.3.8-3,1.4-4.1,2.4-5.7,5.2q-.7,2.6-1,5c4.6,3.1,9.7,3.8,15,5,.8.2,1.6.4,2.5.6,12.8,2.8,27,3.1,39.9,1.7,3.8-.4,7.5-.3,11.2-.2,3.8-.1,7.3-1.3,11-2.4q1.3-.4,2.6-.8c1.8-.6,3.6-1.1,5.4-1.7.9-.3,1.7-.5,2.6-.8.8-.2,1.6-.5,2.4-.7,2.4-.7,4.9-1.2,7.3-1.6v-2c.9-.1,1.9-.2,2.8-.3,3.4-.7,4.1-1.1,6.2-3.7l5-5c-1.9-3.6-3.7-5.6-7-8v-2h-2v2h-4l-1-3c-.6.2-1.1.4-1.7.6-2.7.5-4.7.1-7.3-.6q-.5-1.5-1-3-1,.3-2.1.5c-.9.2-1.8.4-2.8.6-.9.2-1.8.4-2.7.6-.8,0-1.6.2-2.4.2l-2-2q-2,0-4.1.4-1.9.3-3.9.6v1l-6,1v-3c-18.9,0-37.8,5.6-55,13ZM516,1395.8l1,2-1-2ZM508,1418.8v2c1-.3,2-.7,3-1-1-.3-2-.7-3-1ZM497,1422.8c-1.7.3-3.3.7-5,1v2c2-.3,4-.7,6-1l-1-2Z" class="st5"/>
  <path d="M1543,1237.8c2.6,2,4.6,4,6,7-.3,2.3-.9,3.9-2,5.9-1.1,2.3-1.6,4.5-2,7.1-1.3-.3-2.6-.7-4-1q.5,2.5,1,5h-6v2q-4.5,4-7,4v2q1,.5,2,1c-.6.5-1.2.9-1.9,1.4-2.3,1.7-4.1,3.6-5.9,5.8q-2.2,1.9-4.9,2.1c-.7,0-1.5-.2-2.2-.2v3c-3.9,2.2-6.6,3.4-11,3v2c-1.3-.3-2.6-.7-4-1v2c-5.5,2.2-10.1,3.3-16,3q-2.2-.1-4.8.6c-2.7.5-3.9-.2-6.2-1.6v-2c-1-.3-2-.7-3-1,.5-.4,1-.7,1.6-1.1q.7-.9,1.4-1.9c-.3-2-.6-4-1-6,.9-4,2.2-7,5-10q1.5-.5,3-1t1.4-2.3c1.8-3,3.7-4.7,6.6-6.7h2c-.3-1-.7-2-1-3q8.3-5.6,13-6v-2c5.5-3.2,10.9-6,17-8,1-.4,2-.8,3-1.1,7-2.5,13-4.2,20-.9ZM1527,1247.8c-.8.3-1.6.6-2.5.9-3.1,1.4-5.7,3.1-8.5,5q-2,1.1-4.1,1.6c-3.1.8-4.7,3.2-6.9,5.5-3,2.6-5.1,4.2-9,5-1.3.7-2.7,1.3-4,2-1,.3-2,.7-3,1v3c-.3,1-.7,2-1,3h-2c-.7,1-1.3,2-2,3l-2-2-2,4q1.6,3.1,3.8,3.4c6.5,0,14.4-.6,19.2-5.4,1.7-.7,3.3-1.3,5-2,3.1-1.8,6.2-3.7,9.3-5.5q2.7-1.5,5.7-1.5c0-.6,0-1.2.1-1.9.3-.7.6-1.4.9-2.1q2.9-1.2,6-2c3.7-1.2,4.2-2.9,6-6.3,1.1-1.9,2.4-3.2,4-4.7v-2c.7-.3,1.3-.7,2-1q-1.7-3.1-4.1-3.9c-4.1-.2-7.2,1.3-10.9,2.9ZM1476,1285.8c.3,1.3.7,2.6,1,4h2c-.7-1.3-1.3-2.6-2-4h-1Z" class="st3"/>
  <path d="M797,1477.8c.9,0,1.9.1,2.9.2q2.1.8,3.9,3.1c1.3,2.9,1.6,4.6,1.2,7.8q-1,2.3-2,4l2,1c-1,2-2,4-3,6q-1.5-.5-3-1c.3.3.7.7,1,1,0,3.9-1.5,5.1-4,8v-4h-2c.3.8.6,1.7.9,2.6.1,3.9-.2,4.4-2.7,7.2-1,1.1-2.1,2.2-3.2,3.2q-2,1.9-3.5,4.1c-.5.6-1,1.2-1.5,1.9h-2v2q-1.6,1.8-3.7,3.7c-.7.6-1.4,1.3-2.1,1.9q-2.2,1.4-5,1.1c-.7-.2-1.5-.5-2.2-.7,0,.8-.2,1.5-.2,2.3q-.8,2.7-2.6,4.3c-.8.4-1.6.9-2.4,1.3-.9.5-1.8,1-2.7,1.5-1,.5-1.9,1-2.9,1.6-1,.6-2,1.1-3,1.7-9.2,5-16.8,6.1-27,4.3q1-.5,2-1c-.4-1-.7-1.9-1.1-2.9-1.6-5.9-1.1-10.7,1.6-16.2,2.3-4.1,4.8-8,7.4-11.9h2c.2-.7.3-1.4.5-2.1,1.9-3.7,4.3-5.6,7.5-8.2,1.7-1.5,3.3-3,4.8-4.7q2.2-2.1,5.2-2.1.4-.9.8-1.8c2.1-3.8,5.7-5.7,9.2-8.2,1-.7,1.9-1.4,2.9-2.1,8.7-6,15.4-9.7,26.1-8.9ZM781,1489.8q-5.8,3.9-9.1,5.4c-3.3,1.8-5.3,3.8-7.9,6.6-1.2,1-2.5,2-3.7,3-2.9,2.4-4.1,4.4-5.3,8-1,.3-2,.7-3,1q-1.6,1.8-3,3.9c-1.9,2.8-3.1,4.1-6,6.1v2h-2c-1,2-2,4-3,6l-2-4c-2.4,3.5-3.5,5.7-3,10,1.2,3.3,1.9,4,5,6q1.5-.5,3-1c1.3-.3,2.7-.7,4-1-.3-.7-.7-1.3-1-2h4v-2q1.1-.4,2.2-.8c4.7-2,8.7-5.2,12.8-8.2.8-.6,1.6-1.1,2.4-1.7.7-.5,1.5-1,2.2-1.6.7-.5,1.3-.9,2-1.4.5-.4.9-.8,1.4-1.3v-2q2-.5,4-1l1-4c.6,0,1.2-.1,1.8-.2,3.1-1.1,3.6-3.1,5.2-5.8.6-.3,1.3-.5,1.9-.8,2.9-1.6,3.6-3.6,5.1-6.6,1.5-3.1,2.7-5.3,5.2-7.7q2.3-1.9,1.8-5.9h2q-.5-2.5-1-5c-7.1-.9-11.3,2.1-17,6ZM751,1509.8v3h2c-.3-1-.7-2-1-3h-1ZM786,1513.8q-1,1.5-2,3c1-.3,2-.7,3-1l-1-2ZM776,1523.8l-2,2q.3,2.1,1,4l2-6h-1ZM764,1533.8c-.3.7-.7,1.3-1,2h2c-.3-.7-.7-1.3-1-2ZM758,1537.8c-.3.7-.7,1.3-1,2h2c-.3-.7-.7-1.3-1-2Z" class="st2"/>
  <path d="M275,1146.8c3.5,2.8,6,5.9,8,10l-1,2h3v2h-2c1.9,2.7,3.2,4.1,6,6v3h-3l2,6h2l-1,5c1.3.3,2.6.7,4,1,.2,1.4.4,2.8.6,4.2.1.8.2,1.6.4,2.4,0,2.7-.6,4.1-2,6.4q-1-.5-2-1c.4.9.7,1.9,1.1,2.8q.9,3.2,0,6.2c1,.3,2,.7,3,1-.3,1-.7,2-1,3l1,2h-2c.1,1.1.2,2.2.3,3.3.9,11,.5,21.7-.6,32.6-.1,1.3-.2,2.6-.4,3.9q-3.5,33.1-13.4,41.2c-5.2.7-8.7,0-13-3-3.8-4.6-6.7-8.9-7-15h-2c-2.1-9.8-4.2-19.6-5.6-29.5q-.3-2.6-1.4-5.5c0-2.4,0-4.8,0-7.2q0-2.8-.5-5.9c-2.8-21.1-2.4-52.2,10.3-70.5,4.7-4.9,9.2-7.3,16.2-6.4ZM262,1155.8c-4.6,6.4-4.3,13.3-4,20.9,0,1,0,2,0,3.1-.3.3-.7.7-1,1,0,1.7,0,3.3,0,5h2c-.3,2.3-.6,4.6-.9,6.9-.2,1.3-.3,2.6-.5,3.9-.2,1-.4,2.1-.6,3.2q-1,.5-2,1v11h1c.3-1.7.7-3.3,1-5v6c-.6.1-1.3.3-1.9.4q-2,.4-3.1,1.6c0,2.4.2,4.7.4,7.1.1,1.3.2,2.6.3,3.9,0,1,.2,2,.3,3h2q-.5.7-1,1.5c-1.4,3.6-.8,6.9-.3,10.7,0,.8.2,1.6.3,2.4.7,5.6,1.7,11.1,3,16.6.2.7.3,1.4.5,2.1,1.1,4.5,2.7,8.5,4.6,12.7h3c-.3,1.3-.7,2.6-1,4,1.1.8,2.2,1.7,3.4,2.5.6.5,1.3.9,1.9,1.4q1.7,1.3,3.7,1.1v2c2.4-.4,3.7-.7,5.4-2.5,3.5-5.6,5-11,6.3-17.5.2-1,.4-2,.6-3.1,4.1-20.5,5.1-41.2,2.7-62-.1-1.3-.3-2.6-.4-3.9-1.6-14.6-4.1-31.9-12.6-44.1-5.7-1.8-8.7-1-13,3ZM289,1183.8v2c.7-.3,1.3-.7,2-1-.7-.3-1.3-.7-2-1ZM290,1188.8l1,3-1-3ZM256,1189.8v6h1v-6h-1ZM263,1274.8l1,2-1-2Z" class="st0"/>
  <path d="M297,1020.8h11v3c.5.9.9,1.9,1.4,2.8,1.5,3.2,2.1,5.7,2.6,9.2h-2c.2.8.4,1.6.6,2.4.5,5-.6,9.1-1.8,13.9-.2.9-.4,1.8-.6,2.7-2,8.2-4.7,15.8-9.2,23.1-1.3,2.7-2.4,5.5-3.6,8.2-2.8,6.5-5.8,12.9-9.1,19.2-.4.7-.7,1.4-1.1,2.2-2.1,4.1-3.9,6.5-8.2,8.4h-2v2c-.6.4-1.3.9-1.9,1.3-2.6,2.1-2.7,3.5-3.1,6.7-1.3-1-2.6-2-4-3q-.5.5-1,1c.7.3,1.3.7,2,1v2c-4.4.4-7.1-.8-11-3v-3q1-.5,2-1c0-.5,0-1.1-.1-1.6-.8-18.4,8.3-38.6,15.1-55.4h-2v-3q2.5-1.7,5-3-.5-2.5-1-5c.6,0,1.2-.1,1.8-.2,3.1-1.1,3.8-2.8,5.4-5.7.5-.9,1-1.8,1.5-2.7q1.4-2.5,2.3-5.4c1.7-1.7,3.3-3.3,5-5,3.4-4.1,4.9-6.6,6-12ZM295.4,1032.8c-1.2,1.6-2.3,3.3-3.4,5-.5.7-1,1.4-1.5,2.2-2.5,3.8-4.1,7.4-5.5,11.8-.5.7-.9,1.5-1.4,2.2-2,3.3-3.3,6.8-4.7,10.4q-1,2.3-3,5.3v4h-2c-1.4,4.2-2.9,8.5-4.3,12.8-.4,1.2-.8,2.4-1.2,3.6q-5.3,13.1-5.5,26.7-.4,2.2-1,4c2.6,0,4.5-.2,7-1q.5-1,1-2c.7.3,1.3.7,2,1q1.6-4.4,2-9,1.2-2.2,2.8-4.6c.5-.8,1-1.6,1.6-2.4q1.6-2,4.6-3,1.3-1.9,2.4-4.2c.4-.9.9-1.7,1.3-2.6.4-.9.9-1.8,1.3-2.8.4-.9.9-1.8,1.3-2.7,2.5-5.2,4.7-10.3,6.7-15.8-.7-.7-1.3-1.3-2-2-.4-2-.7-4-1-6h2c.2-1,.5-1.9.7-2.9,1.9-7.6,4.1-14.9,7.3-22.1h2c1.1-2.3,1.1-3.6,1.1-6.1,0-1.3,0-2.6,0-3.9-5.3-1-7.4-.1-10.6,4Z" class="st0"/>
  <path d="M682,1558.8q1.9,1.5,3,3,0,7-2.6,9.7c-3,1.7-6,2.5-9.4,3.3v2c-1.3.5-2.5,1-3.8,1.5-.7.3-1.4.6-2.1.8q-2,.7-5,.7v2l-4-1-1,2c-6.6,1.9-13.2,2.2-20,2-.3.7-.7,1.3-1,2-4.4,2.2-10.3,1.2-15.1,1.2-1.2,0-2.4,0-3.6,0q-15.8,0-21.8-5.8c-1.3-2.3-2.1-4-2.5-6.6.6-.2,1.2-.4,1.8-.6q2.5-1.3,3.6-4.4t4-4.3c1.6-.4,3.1-.8,4.7-1.1q2-.4,3.4-2.1c1.8-1.8,3-1.9,5.5-2.5,1.1-.5,2.3-.9,3.4-1.4,5.7-2.2,11.6-3.4,17.6-4.6.9-.2,1.7-.4,2.6-.6,13.9-1.8,29.8-2.5,42.4,4.6ZM630,1557.8v2c1-.3,2-.7,3-1-1-.3-2-.7-3-1ZM673,1561.8c-1.9.1-3.7.2-5.6.3-1.1,0-2.3,0-3.4.1-1.2,0-2.4,0-3.6.1-7.2.2-14.2.5-21.4,1.5h-3c-1.7.6-3.4,1.3-5,2-.3-.7-.7-1.3-1-2q-.9.5-1.7.9c-2.1,1-4.1,1.8-6.3,2.5q-1.2.4-2.4.8c-2.8.8-5.5,1.5-8.3,2.2-4.8,1.3-7.2,2.7-10.2,6.6.3,1,.7,2,1,3,7.5,1.9,14.3,2.1,22,1.6,1,0,2.1-.1,3.1-.2,1.9-.1,3.8-.2,5.7-.3,1.4,0,2.8-.1,4.2-.1v-2c2.3.7,4.6,1.3,7,2,.3-.7.7-1.3,1-2,.3.3.7.7,1,1,7,0,13.7-1.8,20.4-3.8.9-.2,1.8-.5,2.7-.8q6.3-1.9,11-6.4c.3-3.1.4-5.2-1-8q-3.8-.3-6,1Z" class="st5"/>
  <path d="M1627,803.8c4.1,1.9,6.3,3.7,8,8,.4,5.1.4,10.1-1,15-1.3.3-2.6.7-4,1,1,.3,2,.7,3,1-1.3,6.6-3.8,12.1-7,18h-2c0,.7,0,1.4,0,2.1-1.4,4.3-4.3,6.4-7.9,8.9q-2.9.9-5,1v2c-3.2.8-5.7,1-9,1-1-2.9-2-5.7-2.5-8.8-.2-.7-.3-1.4-.5-2.2-.7-.3-1.3-.7-2-1,.3-6.7.9-12.7,3.3-19q.9-2.2,1.5-5.4c3.8-11.2,12.3-24.2,25.2-21.6ZM1622,811.8c-1.2,1.4-2.3,2.8-3.4,4.2-.6.8-1.3,1.6-1.9,2.4-1.7,2.6-2.2,4.4-2.6,7.5h-2c-.3.7-.7,1.4-1,2-.4.9-.9,1.8-1.3,2.7-.4.9-.9,1.8-1.3,2.7-1.3,2.4-2.7,4.5-4.4,6.6l2,2c.4,3.7.1,4.8-2,8v-6h-1v8c3.7,0,6.5-.8,10-2v-2q1-.5,2-1c1-1.6,2-3.2,2.9-4.9,1.8-3.2,3.5-5.6,6.1-8.1,2.2-6,3.8-12.7,2.2-19q-1.2-2.3-4.2-3ZM1604,857.8l1,2-1-2Z" class="st0"/>
  <path d="M462,1534.8h5v1c2.6.3,5.3.7,8,1v-2c8.2-.3,15,.5,22,5,2.6,1.1,5.3,2,8,3v2c.6.2,1.2.5,1.9.8,2.5,1.5,3.2,2.5,4.1,5.2-.3.7-.7,1.3-1,2-.4,1.7-.7,3.3-1,5l-4,1v2c-1.6.6-3.2,1.3-4.8,1.9-.9.4-1.8.7-2.7,1.1-4.8,1.9-8.9,2.2-14,2.2-.8,0-1.6,0-2.4,0-2,0-4.1-.1-6.1-.2l-2-2-1,1c-6.6.6-12.6-1.2-19-3v-3q-1.1,0-2.3-.2-2.7-.8-4.4-2.9c-1.9-4.4-2.8-8.2-1.2-12.9,1.3-.4,2.7-.7,4-1,2-1,4-2,6-3v-2h6l1-2ZM451,1546.8c.3,2.9.9,3.9,3,6,3.7,2.5,7.2,3.7,11.5,4.8.8.2,1.6.4,2.5.7,9.9,2.4,23.5,4.4,32.9-.4v-2l4-1c-2.2-4.2-3.1-5.6-7.6-7.4-1.4-.3-2.8-.6-4.3-.9-.8-.2-1.5-.3-2.3-.5-11.7-2.3-28.6-4.8-39.8.8ZM500,1545.8c.3,1,.7,2,1,3l2-1c-1-.7-2-1.3-3-2Z" class="st5"/>
  <path d="M368.2,1562.7c.9.4,1.9.7,2.8,1.1.9.4,1.9.7,2.9,1.1q2.1,1.9,2.7,5.5c-.9,13.2-10.5,25.6-18.6,35.4-.5.6-1,1.2-1.4,1.8-2.1,2.6-3.8,4.3-6.6,6.2q-3.1.3-6,0c-3.1-4.6-3.4-9.1-2.6-14.6,2.8-11.2,12.8-36,26.8-36.5ZM360,1567.8l1,2-1-2ZM366,1570.8c-9.8,7.3-13.6,17.9-18,29-.7-.3-1.3-.7-2-1q-1,3.5-2,7l2,2q1-.5,2-1v2l4-2v-2q1.5-.5,3-1c.3-.6.6-1.3.9-1.9q1.1-2.1,3.1-2.8t3.1-4.9c.1-.7.3-1.4.4-2.1.8-3.3,2.1-6.1,3.5-9.2.8-2.5,1.3-4.6,1.6-7.2q.2-1.9.4-3.8c-.7-.3-1.3-.7-2-1ZM369,1584.8l1,2-1-2ZM349,1610.8l1,2-1-2Z" class="st5"/>
  <path d="M1397.4,1371.6c9.8,3.7,17.2,9.1,22.6,18.2l2,1q.6,2.6,1,5h2q.5,3,1,6l-3,2c1.3.3,2.6.7,4,1-.7,1-1.3,2-2,3-4.6.4-8.1.6-12-2v-2q-.9-.4-1.8-.9t-5.2-3.1v-2h-3c-1.7-1.7-3.3-3.3-5-5-.7-.1-1.3-.3-2-.4-3.4-1-5.2-3.7-7-6.6-1.8-4.9-2.5-9.8-3-15,3.7-1.9,7.7-.4,11.4.8ZM1389,1372.8c.4,5.8,2.6,8.7,6.3,12.8.5.6,1,1.2,1.5,1.8q2.6,3.2,6.3,4.9.9.3,1.9.5l1,3c1.3.7,2.7,1.3,4,2,.7.7,1.3,1.4,2,2.1q2,2.3,6,1.9h2c.9-3,1.4-5.1,0-8-1.3-1.9-2.4-3.5-4.1-5h-5q0-2,2-4c-6.7-6.1-14.5-12-24-12ZM1421,1404.8l1,2-1-2Z" class="st2"/>
  <path d="M1493,1402.8c1.7-.1,3.5-.3,5.2-.5,4.5-.5,8.3-.4,12.8.5q.5,4,1,8h-2q-.3,1-.7,1.9t-3.6,2.9c-7.4,1.1-14.8,1.4-22.3,1.5q-1.4,0-2.9,0-6.9,0-10.2-2.5c-.4-.7-.9-1.3-1.3-2q1.5-4.6,4-6.4,2-.6,4,.4v-2q1-.2,2-.4,1.3-.3,2.7-.5c.9-.2,1.8-.3,2.7-.5q2.5-.5,4.8-1.2,1.8-.4,3.8.6ZM1486,1406.8q-1.7.2-3.4.4-3.7.3-6.6,2.6l1,3q7.6.2,15.1-.6,2.9-.4,4.9.6,3.6-.7,7-2c.3-1,.7-2,1-3l-3-1-2,1c-.3-.7-.7-1.3-1-2v2q-3-.5-6-1v-1q-3.8-.4-7,1ZM1505,1406.8l3,2,2-1c-1.6-.3-3.3-.7-5-1ZM1506,1408.8c-.3.7-.7,1.3-1,2h2c-.3-.7-.7-1.3-1-2Z" class="st0"/>
</svg>